<svg width="10.883" height="10.883" viewBox="0 0 10.883 10.883" xmlns="http://www.w3.org/2000/svg" xmlns:xlink="http://www.w3.org/1999/xlink" overflow="hidden"><g id="リンクのフリーアイコン1" transform="translate(0.001 -0.003)"><path d="M203.695 2.408C203.384 0.797398 201.827-0.25643 200.216 0.0542109 199.632 0.166812 199.096 0.452047 198.676 0.873L197.268 2.281C196.984 2.56598 196.985 3.02735 197.27 3.3115 197.554 3.59565 198.016 3.59498 198.3 3.31L199.7 1.9C200.283 1.29789 201.244 1.2827 201.847 1.86607 202.449 2.44944 202.464 3.41047 201.88 4.01258 201.869 4.02423 201.858 4.03571 201.846 4.047L200.438 5.455C200.154 5.73887 200.154 6.19935 200.438 6.4835 200.721 6.76765 201.182 6.76787 201.466 6.484L202.874 5.075C203.573 4.37691 203.879 3.37672 203.69 2.407Z" id="パス_106" fill="#4B4B4B" transform="translate(-192.867 0)"/><path d="M5.452 200.467 4.043 201.876C3.68642 202.233 3.17542 202.39 2.68 202.293 2.38349 202.235 2.11109 202.09 1.898 201.876 1.75476 201.733 1.64154 201.563 1.565 201.376 1.3341 200.811 1.46541 200.162 1.898 199.731L3.307 198.323C3.59087 198.039 3.59065 197.578 3.3065 197.294 3.02235 197.011 2.56187 197.011 2.278 197.295L0.87 198.7C-0.333953 199.816-0.405543 201.696 0.7101 202.9 1.82574 204.104 3.70615 204.176 4.9101 203.06 4.96541 203.009 5.01875 202.955 5.07 202.9L6.478 201.491C6.7573 201.203 6.74989 200.742 6.46145 200.463 6.17955 200.19 5.7319 200.19 5.45 200.463Z" id="パス_107" fill="#4B4B4B" transform="matrix(1 0 0 1 0 -192.887)"/><path d="M163.419 159.772C163.135 159.489 162.675 159.489 162.391 159.772L159.744 162.418C159.46 162.702 159.46 163.163 159.745 163.447 160.029 163.73 160.489 163.73 160.773 163.446L163.419 160.8C163.703 160.517 163.703 160.057 163.42 159.773 163.42 159.773 163.419 159.772 163.419 159.772Z" id="パス_108" fill="#4B4B4B" transform="translate(-156.141 -156.164)"/></g></svg>