<svg width="12.489" height="18.549" viewBox="0 0 12.489 18.549" xmlns="http://www.w3.org/2000/svg" xmlns:xlink="http://www.w3.org/1999/xlink" overflow="hidden"><g id="マップのピンアイコン" transform="translate(-83.644 0)"><path d="M89.888 0C86.4395 0 83.644 2.79553 83.644 6.244 83.644 9.764 85.389 10.514 87.317 12.856 88.6814 14.481 89.571 16.451 89.888 18.549 90.205 16.451 91.0946 14.481 92.459 12.856 94.387 10.514 96.132 9.764 96.132 6.244 96.132 2.79553 93.3365-4.19617e-08 89.888-4.19617e-08ZM89.888 8.4C88.6962 8.4 87.73 7.43383 87.73 6.242 87.73 5.05017 88.6962 4.084 89.888 4.084 91.0798 4.084 92.046 5.05017 92.046 6.242 92.046 7.43383 91.0798 8.4 89.888 8.4Z" id="パス_100" fill="#4B4B4B"/></g></svg>