<svg width="7.716" height="11.46" viewBox="0 0 7.716 11.46" xmlns="http://www.w3.org/2000/svg" xmlns:xlink="http://www.w3.org/1999/xlink" id="マップのピンアイコン" overflow="hidden"><path d="M87.5 0C85.3698-0.000552356 83.6426 1.72584 83.642 3.856 83.642 3.85667 83.642 3.85733 83.642 3.858 83.642 6.033 84.72 6.496 85.911 7.943 86.7541 8.94686 87.3039 10.1638 87.5 11.46 87.6963 10.1637 88.2465 8.94672 89.09 7.943 90.282 6.5 91.36 6.033 91.36 3.858 91.3605 1.72784 89.6342 0.000551932 87.504-9.9682e-07 87.5027-1.34303e-06 87.5013-9.97402e-07 87.5 4.00543e-08ZM87.5 5.191C86.7638 5.191 86.167 4.5942 86.167 3.858 86.167 3.1218 86.7638 2.525 87.5 2.525 88.2362 2.525 88.833 3.1218 88.833 3.858 88.833 4.5942 88.2362 5.191 87.5 5.191Z" id="パス_16" fill="#DEDEDE" transform="translate(-83.644 0)"/></svg>