<svg width="84.144" height="32.506" viewBox="0 0 84.144 32.506" xmlns="http://www.w3.org/2000/svg" xmlns:xlink="http://www.w3.org/1999/xlink" overflow="hidden"><g id="レイヤー_2" transform="matrix(1 0 0 1 0 11.97)"><g id="レイヤー_1" transform="matrix(1 0 0 1 0 -9.97)"><rect x="0" y="0" rx="3" width="29.599" height="29.599" id="長方形_159" fill="#62A2E3" transform="matrix(1 0 0 1 0 0.907)"/><path d="M56.285 49.738C56.3063 51.0119 55.2908 52.0619 54.0168 52.0832 53.9462 52.0844 53.8755 52.0823 53.805 52.077 52.5071 52.0657 51.4642 51.0044 51.4755 49.7065 51.4868 48.4086 52.5481 47.3657 53.846 47.377 55.1139 47.2997 56.2044 48.2649 56.2817 49.5328 56.2858 49.6011 56.2869 49.6696 56.285 49.738ZM51.438 67.273 51.438 53.495 56.28 53.495 56.28 67.273Z" id="パス_94" fill="#FFFFFF" transform="translate(-46.731 -42.161)"/><path d="M143.547 49.14 143.547 64.505C143.547 66.137 143.603 67.799 143.659 68.873L139.409 68.873 139.2 67.124 139.136 67.124C138.332 68.4242 136.896 69.1983 135.368 69.156 132.16 69.156 129.94 66.143 129.94 62.056 129.925 57.382 132.613 54.81 135.611 54.81 136.786 54.7003 137.935 55.1977 138.66 56.129L138.716 56.129 138.716 49.14ZM138.719 60.858C138.725 60.6295 138.711 60.401 138.677 60.175 138.574 59.3037 137.854 58.6363 136.977 58.601 135.472 58.601 134.817 60.139 134.817 62.008 134.817 64.236 135.752 65.292 136.963 65.292 137.772 65.2951 138.47 64.7218 138.623 63.927 138.695 63.6325 138.728 63.33 138.723 63.027Z" id="パス_95" fill="#FFFFFF" transform="translate(-118.116 -43.761)"/><text id="就活" font-family="YuGothicUI-Regular,Yu Gothic UI" font-size="24" transform="translate(36.144 24)"><tspan x="0" y="0">就活</tspan></text></g></g></svg>