<svg width="82.984" height="65.136" viewBox="0 0 82.984 65.136" xmlns="http://www.w3.org/2000/svg" xmlns:xlink="http://www.w3.org/1999/xlink" overflow="hidden"><g id="メールの無料アイコンその8" transform="matrix(1 0 0 1 0 -55.062)"><path d="M82.77 64.335C82.4032 62.4871 81.5872 60.7579 80.394 59.3 80.1506 58.9962 79.8895 58.707 79.612 58.434 77.4554 56.2721 74.5266 55.058 71.473 55.06L11.511 55.06C8.45801 55.0599 5.53027 56.2737 3.373 58.434 3.09587 58.7074 2.83477 58.9965 2.591 59.3 1.39661 60.7559 0.583487 62.4863 0.225 64.335 0.0745715 65.0718-0.000813433 65.822-3.93391e-07 66.574L0 108.687C0.000494656 110.26 0.325253 111.816 0.954 113.258 1.52374 114.591 2.34505 115.802 3.373 116.824 3.631 117.081 3.887 117.317 4.166 117.552 6.23102 119.263 8.82915 120.199 11.511 120.197L71.473 120.197C74.1576 120.202 76.7583 119.262 78.819 117.541 79.096 117.316 79.3607 117.076 79.612 116.823 80.6394 115.798 81.4639 114.588 82.042 113.257L82.042 113.247C82.6668 111.808 82.9875 110.255 82.984 108.686L82.984 66.574C82.9839 65.8226 82.9123 65.0728 82.77 64.335ZM7.538 62.6C8.58745 61.5395 10.0191 60.9454 11.511 60.951L71.473 60.951C73.237 60.9407 74.9001 61.7724 75.95 63.19L44.522 90.58C42.7853 92.0929 40.1987 92.0929 38.462 90.58L7.046 63.178C7.19242 62.971 7.35708 62.7776 7.538 62.6ZM5.889 108.687 5.889 69.272 28.633 89.113 5.9 108.933C5.89032 108.851 5.88665 108.769 5.889 108.687ZM71.473 114.307 11.511 114.307C10.5342 114.311 9.5738 114.056 8.727 113.569L32.711 92.669 34.95 94.617C38.7024 97.8875 44.2926 97.8875 48.045 94.617L50.283 92.669 74.258 113.569C73.4109 114.056 72.4502 114.311 71.473 114.308ZM77.095 108.687C77.0971 108.769 77.0934 108.851 77.084 108.933L54.353 89.124 77.1 69.282Z" id="パス_57"/></g></svg>