<svg width="20.116" height="30.049" viewBox="0 0 20.116 30.049" xmlns="http://www.w3.org/2000/svg" xmlns:xlink="http://www.w3.org/1999/xlink" overflow="hidden"><g id="人物の無料素材" transform="translate(-84.617 0)"><path d="M131.142 15.571C135.442 15.571 138.927 12.0855 138.927 7.786 138.927 3.48646 135.442 0.00100025 131.142 0.00100025 126.842 0.00100025 123.357 3.48646 123.357 7.786 123.357 12.0855 126.842 15.571 131.142 15.571Z" id="パス_1" fill="#707070" transform="translate(-36.467 0)"/><path d="M104.645 288.291C104.045 285.947 102.886 283.783 101.267 281.984 100.942 281.715 100.483 281.682 100.122 281.9 96.7841 283.966 92.5649 283.966 89.227 281.9 88.8663 281.682 88.4069 281.715 88.082 281.984 86.463 283.783 85.3039 285.947 84.704 288.291 83.85 293.417 89.326 295.269 94.674 295.269 100.022 295.269 105.5 293.417 104.645 288.291Z" id="パス_2" fill="#707070" transform="matrix(1 0 0 1 0 -265.22)"/></g></svg>