<svg width="33.479" height="33.48" viewBox="0 0 33.479 33.48" xmlns="http://www.w3.org/2000/svg" xmlns:xlink="http://www.w3.org/1999/xlink" overflow="hidden"><g id="時計の無料アイコン" transform="translate(-0.005 0)"><path d="M176.934 163.339 181.173 166.609 181.232 166.643 181.258 166.658C181.663 166.854 182.149 166.746 182.433 166.398L182.461 166.371 187.661 160.224C187.958 159.972 187.995 159.527 187.743 159.23 187.491 158.933 187.046 158.897 186.749 159.148 186.699 159.191 186.655 159.241 186.618 159.296L181.762 164.484 178.013 161.873C177.566 161.633 177.01 161.801 176.77 162.248 176.577 162.609 176.645 163.053 176.938 163.339Z" id="パス_187" fill="#3B6DA0" transform="translate(-165.083 -148.603)"/><path d="M62.526 246.425C62.5237 246.202 62.5334 245.978 62.555 245.756L59.894 245.756C59.878 245.976 59.873 246.201 59.873 246.425 59.873 246.649 59.873 246.875 59.894 247.095L62.555 247.095C62.5334 246.872 62.5237 246.649 62.526 246.425Z" id="パス_188" fill="#3B6DA0" transform="translate(-55.953 -229.686)"/><path d="M152.064 84.852C152.316 84.693 152.572 84.543 152.833 84.409L152.933 84.36 151.607 82.06C151.274 82.2279 150.951 82.4139 150.638 82.617L151.965 84.917Z" id="パス_189" fill="#3B6DA0" transform="translate(-140.785 -76.691)"/><path d="M82.071 151.6 84.371 152.926 84.929 151.959 82.629 150.632C82.4256 150.944 82.2393 151.267 82.071 151.6Z" id="パス_190" fill="#3B6DA0" transform="translate(-76.7 -140.785)"/><path d="M386.64 326.309C386.502 326.57 386.356 326.826 386.192 327.074L386.126 327.174 388.426 328.501C388.626 328.187 388.816 327.869 388.987 327.538L386.687 326.207Z" id="パス_191" fill="#3B6DA0" transform="translate(-360.872 -304.873)"/><path d="M84.423 326.306 84.37 326.206 82.07 327.532C82.2366 327.865 82.4226 328.189 82.627 328.5L84.927 327.173 84.86 327.073C84.7009 326.825 84.5551 326.569 84.423 326.306Z" id="パス_192" fill="#3B6DA0" transform="translate(-76.7 -304.874)"/><path d="M152.064 386.178 151.964 386.112 150.637 388.412C150.95 388.616 151.273 388.804 151.606 388.974L152.932 386.674 152.832 386.625C152.568 386.49 152.312 386.34 152.064 386.178Z" id="パス_193" fill="#3B6DA0" transform="translate(-140.785 -360.864)"/><path d="M326.214 84.357 327.182 84.919 328.508 82.619C328.197 82.4161 327.876 82.2302 327.545 82.062Z" id="パス_194" fill="#3B6DA0" transform="translate(-304.878 -76.692)"/><path d="M245.771 410.726 245.771 413.384C245.992 413.404 246.216 413.408 246.44 413.408 246.664 413.408 246.889 413.408 247.109 413.384L247.109 410.7 245.771 410.7Z" id="パス_195" fill="#3B6DA0" transform="translate(-229.695 -383.842)"/><path d="M247.109 62.55 247.109 59.892C246.889 59.872 246.665 59.868 246.44 59.868 246.215 59.868 245.992 59.868 245.771 59.892L245.771 62.577 247.109 62.577Z" id="パス_196" fill="#3B6DA0" transform="translate(-229.695 -55.953)"/><path d="M326.214 386.677 327.546 388.977C327.877 388.804 328.196 388.619 328.509 388.415L327.183 386.115Z" id="パス_197" fill="#3B6DA0" transform="translate(-304.878 -360.863)"/><path d="M388.992 151.6C388.822 151.268 388.635 150.944 388.431 150.632L386.131 151.959 386.693 152.926Z" id="パス_198" fill="#3B6DA0" transform="translate(-360.872 -140.785)"/><path d="M413.4 245.757 410.712 245.757 410.712 247.097 413.4 247.097C413.417 246.876 413.42 246.652 413.42 246.427 413.42 246.202 413.418 245.977 413.4 245.757Z" id="パス_199" fill="#3B6DA0" transform="translate(-383.851 -229.687)"/><path d="M16.745 0C7.49975 0 0.00500084 7.49475 0.00500084 16.74 0.00500084 25.9852 7.49975 33.48 16.745 33.48 25.9902 33.48 33.485 25.9852 33.485 16.74 33.485 7.49475 25.9902-2.28882e-07 16.745-2.28882e-07ZM16.745 31.32C8.69324 31.3193 2.16653 24.7916 2.16718 16.7398 2.16783 8.68806 8.6956 2.16135 16.7474 2.162 24.7991 2.16265 31.3258 8.69042 31.3252 16.7422 31.3249 20.6084 29.7889 24.3162 27.055 27.05 24.3239 29.7892 20.6131 31.326 16.745 31.32Z" id="パス_200" fill="#3B6DA0"/></g></svg>