<svg width="23.76" height="22.31" viewBox="0 0 23.76 22.31" xmlns="http://www.w3.org/2000/svg" xmlns:xlink="http://www.w3.org/1999/xlink" overflow="hidden"><g id="バカンスの無料イラスト1" transform="matrix(1 0 0 1 0 -15.624)"><path d="M59.745 382.552 57.971 386.333C57.7472 386.809 57.952 387.377 58.4284 387.601 58.4286 387.601 58.4288 387.601 58.429 387.601L58.729 387.743C59.2055 387.968 59.774 387.764 59.9989 387.287 59.9993 387.287 59.9996 387.286 60 387.285L62.219 382.555 59.836 382.555C59.806 382.556 59.776 382.555 59.745 382.552Z" id="パス_264" fill="#3B6DA0" transform="translate(-55.195 -349.9)"/><path d="M395.663 358.465 395.49 358.834C395.274 359.293 394.813 359.586 394.306 359.587L393.712 359.587 395.931 364.317C396.155 364.794 396.722 364.999 397.199 364.776L397.499 364.634C397.976 364.411 398.181 363.843 397.957 363.367 397.957 363.366 397.957 363.366 397.957 363.366Z" id="パス_265" fill="#3B6DA0" transform="translate(-375.441 -326.931)"/><path d="M105.721 136.651 104.842 136.239C104.525 136.09 104.146 136.226 103.997 136.544 103.997 136.544 103.997 136.544 103.997 136.544L100.343 144.334C100.238 144.557 100.014 144.7 99.767 144.7L86.967 144.7C86.6158 144.7 86.331 144.985 86.331 145.336L86.331 146.307C86.331 146.658 86.6153 146.942 86.966 146.942 86.9663 146.942 86.9667 146.942 86.967 146.942L101.189 146.942C101.435 146.942 101.66 146.799 101.764 146.576L106.024 137.496C106.173 137.179 106.037 136.801 105.721 136.651Z" id="パス_266" fill="#3B6DA0" transform="translate(-82.327 -114.96)"/><path d="M9.689 29.291 10.843 29.291 9.364 23.2 17.683 21.18 17.303 20.58C15.2012 17.2793 11.2677 15.6347 7.442 16.457L7.223 15.617 6.463 15.817 6.681 16.657C3.02911 17.7639 0.412644 20.9739 0.0650002 24.774L0 25.474 8.274 23.464ZM16.04 20.543 12.831 21.323 12.897 21.293C12.3714 20.0564 11.6103 18.9339 10.656 17.988 10.3729 17.7192 10.0637 17.4794 9.733 17.272 12.2161 17.3743 14.5259 18.5723 16.04 20.543ZM8.081 17.372C8.40587 17.4066 8.72207 17.4983 9.015 17.643 9.69384 17.9961 10.2908 18.4881 10.767 19.087 11.36 19.8115 11.8537 20.6119 12.235 21.467L8.951 22.267 7.7 17.442C7.825 17.416 7.953 17.393 8.081 17.372ZM4.259 23.391 4.331 23.391 1.167 24.16C1.42904 22.7025 2.07176 21.3401 3.03 20.211 3.64741 19.483 4.38552 18.8666 5.212 18.389 4.98379 18.7816 4.80031 19.1985 4.665 19.632 4.36926 20.6113 4.22526 21.6301 4.238 22.653 4.238 22.9 4.245 23.142 4.259 23.391ZM4.926 23.242C4.916 23.042 4.911 22.842 4.911 22.653 4.87871 21.4297 5.11385 20.214 5.6 19.091 5.79033 18.6742 6.05614 18.2961 6.384 17.976 6.4897 17.8767 6.60379 17.7867 6.725 17.707 6.795 17.684 6.866 17.662 6.938 17.64L8.188 22.45Z" id="パス_267" fill="#3B6DA0"/></g></svg>