<svg width="39.465" height="38.9" viewBox="0 0 39.465 38.9" xmlns="http://www.w3.org/2000/svg" xmlns:xlink="http://www.w3.org/1999/xlink" overflow="hidden"><g id="お届け時間アイコン" transform="matrix(1 0 0 1 0 -3.665)"><path d="M29.726 57.951C27.4983 57.9474 25.3613 58.8329 23.789 60.411 22.4615 61.7455 21.6169 63.4845 21.389 65.353L0 65.353 0 92.667 33.093 92.667 33.093 74.021C34.0504 73.6078 34.9202 73.0159 35.656 72.277 38.9333 68.9997 38.9332 63.6862 35.6559 60.4089 34.0831 58.8361 31.9503 57.9521 29.726 57.951ZM30.784 90.364 2.309 90.364 2.309 67.654 13.209 67.654 13.209 73.023 19.89 73.023 19.89 67.654 21.439 67.654C22.0808 71.7328 25.597 74.7369 29.726 74.734 30.0663 74.7356 30.4063 74.7152 30.744 74.673L30.784 74.667 30.784 90.367ZM34.138 70.758C33.7153 71.1792 33.2356 71.539 32.713 71.827 32.0739 72.1722 31.3795 72.4033 30.661 72.51 30.352 72.5609 30.0392 72.5857 29.726 72.584 26.7249 72.5863 24.1482 70.4497 23.595 67.5 23.522 67.1187 23.4862 66.7312 23.488 66.343 23.4884 66.0479 23.5095 65.7532 23.551 65.461 23.9722 62.4978 26.4385 60.2514 29.428 60.108L29.428 66.641 35.957 66.641C35.8862 68.1924 35.2373 69.6611 34.138 70.758Z" id="パス_221" fill="#3B6DA0" transform="matrix(1 0 0 1 0 -50.102)"/><rect x="0" y="0" width="4.921" height="2.297" id="長方形_426" fill="#3B6DA0" transform="translate(27.264 3.665)"/><path d="M463.463 42.853 462.158 44.159 464.695 46.695 466 45.39Z" id="パス_222" fill="#3B6DA0" transform="translate(-426.535 -36.167)"/></g></svg>