<svg width="31.413" height="32.379" viewBox="0 0 31.413 32.379" xmlns="http://www.w3.org/2000/svg" xmlns:xlink="http://www.w3.org/1999/xlink" overflow="hidden"><g id="お金を受け取るアイコン_円編" transform="translate(-7.636 0.002)"><path d="M21.417 259.64 26.7 259.64C27.762 259.64 28.623 258.779 28.623 257.717 28.623 256.655 27.762 255.794 26.7 255.794L19.01 255.794C14.202 255.794 12.68 257.794 10.997 259.479L7.944 262.146C7.74602 262.319 7.63227 262.568 7.632 262.831L7.632 271.694C7.629 271.86 7.76086 271.996 7.92651 271.999 8.00219 272.001 8.07559 271.973 8.132 271.923L14.032 266.865C14.2407 266.689 14.5174 266.615 14.786 266.665L23.986 268.336C24.6274 268.453 25.2889 268.307 25.821 267.93 25.821 267.93 37.559 259.769 38.421 259.047L38.421 259.047C39.1767 258.392 39.2581 257.248 38.6028 256.492 38.564 256.448 38.523 256.405 38.48 256.364 37.5697 255.613 36.2497 255.633 35.362 256.41 34.497 257.131 28.59 261.01 28.59 261.01L21.417 261.01 21.394 261.021C21.0157 261.016 20.7132 260.705 20.7182 260.327 20.7233 259.949 21.034 259.646 21.4123 259.651 21.4212 259.651 21.4301 259.652 21.439 259.652Z" id="パス_227" fill="#3B6DA0" transform="matrix(1 0 0 1 0 -239.62)"/><path d="M301.647 0C299.96 0.000724572 298.396 0.884749 297.526 2.33 300.307 3.34736 302.159 5.99145 302.164 8.953 302.164 9.177 302.151 9.399 302.13 9.618 304.779 9.35266 306.712 6.98987 306.447 4.34056 306.2 1.8754 304.125-0.00131418 301.647-1.5831e-07Z" id="パス_228" fill="#3B6DA0" transform="translate(-271.558 0)"/><path d="M177.63 54.451C174.587 54.451 172.12 56.9179 172.12 59.961 172.12 63.0041 174.587 65.471 177.63 65.471 180.673 65.471 183.14 63.0041 183.14 59.961 183.14 56.9179 180.673 54.451 177.63 54.451ZM179.82 59.508 178.311 59.508 178.149 59.761 178.149 60.361 179.82 60.361 179.82 61.219 178.149 61.219 178.149 62.513 177.111 62.513 177.111 61.223 175.439 61.223 175.439 60.365 177.111 60.365 177.111 59.765 176.949 59.511 175.439 59.511 175.439 58.78 176.477 58.78 175.6 57.4 176.479 57.4 177.633 59.2 178.789 57.4 179.668 57.4 178.787 58.773 179.824 58.773 179.824 59.504Z" id="パス_229" fill="#3B6DA0" transform="translate(-154.082 -51.009)"/></g></svg>