<svg width="39.465" height="37.508" viewBox="0 0 39.465 37.508" xmlns="http://www.w3.org/2000/svg" xmlns:xlink="http://www.w3.org/1999/xlink" overflow="hidden"><g id="デスクワークアイコン4" transform="matrix(1 0 0 1 0 -12.697)"><rect x="0" y="0" width="39.465" height="4.108" id="長方形_424" fill="#3B6DA0" transform="matrix(1 0 0 1 0 46.096)"/><path d="M10.9 286.328 27.567 286.328 27.567 283.084 19.767 283.084 16.483 274.164 1.168 274.164 5.943 286.328Z" id="パス_208" fill="#3B6DA0" transform="translate(-1.078 -241.313)"/><path d="M57.359 56.431 61.285 59.46C61.3028 59.4713 61.3211 59.4816 61.34 59.491L61.365 59.505C61.74 59.6864 62.1905 59.5867 62.454 59.264 62.462 59.254 62.472 59.248 62.48 59.238L67.292 53.546C67.5669 53.3125 67.6005 52.9005 67.367 52.6256 67.1335 52.3507 66.7215 52.3171 66.4466 52.5506 66.4003 52.5899 66.3597 52.6355 66.326 52.686L61.826 57.486 58.352 55.068C57.9371 54.8483 57.4227 55.0065 57.203 55.4214 57.0272 55.7534 57.0902 56.1615 57.358 56.425Z" id="パス_209" fill="#3B6DA0" transform="translate(-52.685 -36.655)"/><path d="M107.2 201.538C107.201 202.067 107.629 202.495 108.158 202.494 108.687 202.493 109.115 202.065 109.114 201.536 109.113 201.008 108.685 200.58 108.157 200.58 107.629 200.579 107.201 201.007 107.2 201.535 107.2 201.536 107.2 201.537 107.2 201.538Z" id="パス_210" fill="#3B6DA0" transform="translate(-98.94 -173.401)"/><path d="M108.159 14.612C108.688 14.612 109.116 14.1835 109.116 13.655 109.116 13.1265 108.688 12.698 108.159 12.698 107.631 12.698 107.203 13.1259 107.202 13.654 107.201 14.1825 107.629 14.6114 108.158 14.612 108.158 14.612 108.159 14.612 108.159 14.612Z" id="パス_211" fill="#3B6DA0" transform="translate(-98.939 0)"/><path d="M173.9 173.347C173.526 173.721 173.526 174.328 173.9 174.702 174.274 175.076 174.881 175.076 175.255 174.702 175.629 174.328 175.629 173.721 175.255 173.347 174.881 172.973 174.274 172.973 173.9 173.347 173.9 173.347 173.9 173.347 173.9 173.347Z" id="パス_212" fill="#3B6DA0" transform="translate(-160.236 -148.008)"/><path d="M42.4 41.849C42.7743 41.4751 42.7747 40.8685 42.4008 40.4942 42.0269 40.1198 41.4203 40.1195 41.046 40.4934 40.6717 40.8673 40.6713 41.4738 41.0452 41.8482 41.0455 41.8485 41.0457 41.8487 41.046 41.849 41.4196 42.2229 42.0255 42.2232 42.3994 41.8496 42.3996 41.8494 42.3998 41.8492 42.4 41.849Z" id="パス_213" fill="#3B6DA0" transform="translate(-37.626 -25.396)"/><path d="M202.1 108.565C202.629 108.565 203.057 108.137 203.057 107.608 203.057 107.079 202.629 106.651 202.1 106.651 201.571 106.651 201.143 107.079 201.143 107.608 201.143 108.137 201.571 108.565 202.1 108.565Z" id="パス_214" fill="#3B6DA0" transform="translate(-185.636 -86.712)"/><path d="M14.215 108.565C14.7435 108.564 15.1716 108.136 15.171 107.607 15.1704 107.078 14.7415 106.65 14.213 106.651 13.6852 106.652 13.2576 107.079 13.257 107.607 13.257 108.136 13.6859 108.565 14.215 108.565Z" id="パス_215" fill="#3B6DA0" transform="translate(-12.235 -86.712)"/><path d="M41.053 173.35C40.6789 173.724 40.679 174.331 41.0532 174.705 41.4274 175.079 42.0339 175.079 42.408 174.705 42.782 174.331 42.782 173.724 42.408 173.35 42.0347 172.976 41.4288 172.975 41.0546 173.348 41.0541 173.349 41.0535 173.349 41.053 173.35Z" id="パス_216" fill="#3B6DA0" transform="translate(-37.63 -148.01)"/><path d="M300.309 83.6C300.443 84.619 300.847 85.5839 301.478 86.395L301.478 87.85C301.477 87.889 301.471 87.9277 301.459 87.965L304.184 89.135 306.907 87.965C306.896 87.9277 306.889 87.889 306.888 87.85L306.888 86.4C307.52 85.5893 307.924 84.6243 308.057 83.605 308.614 83.428 308.934 83.143 309.331 81.905 309.753 80.583 308.695 80.627 308.695 80.627 309.551 78.099 308.424 75.722 306.534 75.896 305.234 73.863 300.865 76.361 299.496 76.186 299.5 76.6137 299.612 77.0335 299.822 77.406 299.466 78.4431 299.411 79.56 299.664 80.627 299.587 80.627 298.628 80.635 299.035 81.905 299.433 83.142 299.751 83.427 300.309 83.6Z" id="パス_217" fill="#3B6DA0" transform="translate(-275.893 -57.584)"/><rect x="0" y="0" width="2.054" height="1.587" id="長方形_425" fill="#3B6DA0" transform="translate(27.263 32.148)"/><path d="M256.708 284.328 256.708 288.966 268.2 288.966C267.59 283.266 264.84 277.932 262.947 277.301 262.72 277.222 262.499 277.129 262.284 277.022L258.417 281.782 258.143 278.661 256.089 278.661 255.814 281.782 251.953 277.022C251.737 277.133 251.513 277.226 251.283 277.301 250.277 277.616 248.964 280.039 247.937 282.819L248.489 284.328Z" id="パス_218" fill="#3B6DA0" transform="translate(-228.824 -243.951)"/></g></svg>