<svg width="29.707" height="26.729" viewBox="0 0 29.707 26.729" xmlns="http://www.w3.org/2000/svg" xmlns:xlink="http://www.w3.org/1999/xlink" overflow="hidden"><g id="住宅ローンのフリー素材2" transform="matrix(1 0 0 1 0 -25.667)"><path d="M199.723 244.166 198.192 244.166 199.367 246.538 197.951 246.538 197.951 247.938 200.093 247.938 200.523 248.687 200.523 249.255 197.952 249.255 197.952 250.655 200.523 250.655 200.523 252.57 202.118 252.57 202.118 250.655 204.688 250.655 204.688 249.255 202.118 249.255 202.118 248.687 202.548 247.938 204.688 247.938 204.688 246.538 203.273 246.538 204.449 244.166 202.916 244.166 201.316 247.189Z" id="パス_238" fill="#3B6DA0" transform="translate(-186.467 -205.821)"/><path d="M14.859 25.667 0 40.514 2.2 42.714 4.174 40.742 4.174 52.4 25.532 52.4 25.532 40.74 27.506 42.714 29.706 40.514ZM23.681 50.544 6.026 50.544 6.026 38.892 14.858 30.067 23.68 38.889Z" id="パス_239" fill="#3B6DA0"/></g></svg>