<svg width="23.785" height="20.885" viewBox="0 0 23.785 20.885" xmlns="http://www.w3.org/2000/svg" xmlns:xlink="http://www.w3.org/1999/xlink" overflow="hidden"><g id="ベビーベッド" transform="matrix(1 0 0 1 0 -31.221)"><path d="M3.946 33.194C3.946 32.1043 3.06266 31.221 1.973 31.221 0.883342 31.221 4.95911e-08 32.1043 4.95911e-08 33.194 4.95911e-08 34.2837 0.883342 35.167 1.973 35.167 3.06266 35.167 3.946 34.2837 3.946 33.194Z" id="パス_254" fill="#3B6DA0"/><path d="M429.033 31.221C427.943 31.221 427.06 32.1043 427.06 33.194 427.06 34.2837 427.943 35.167 429.033 35.167 430.123 35.167 431.006 34.2837 431.006 33.194 431.006 32.1043 430.123 31.221 429.033 31.221Z" id="パス_255" fill="#3B6DA0" transform="translate(-407.22 0)"/><path d="M40.033 120.446C39.6577 120.446 39.2872 120.363 38.948 120.202L38.948 122.754 21.279 122.754 21.279 120.2C20.9398 120.361 20.5693 120.444 20.194 120.444 19.7728 120.469 19.3664 120.284 19.109 119.95L19.109 135.903C19.109 136.462 19.359 136.713 19.668 136.713L20.72 136.713C21.0285 136.712 21.2784 136.462 21.279 136.154L21.279 134.726 38.948 134.726 38.948 136.154C38.9486 136.463 39.1985 136.712 39.507 136.713L40.558 136.713C40.868 136.713 41.118 136.462 41.118 135.903L41.118 119.952C40.8606 120.286 40.4542 120.471 40.033 120.446ZM23.133 131.739 21.279 131.739 21.279 129.3 23.137 129.3ZM23.133 128.188 21.279 128.188 21.279 124.364 23.137 124.364ZM26.354 131.739 24.244 131.739 24.244 129.3 26.358 129.3ZM26.354 128.188 24.244 128.188 24.244 124.364 26.358 124.364ZM29.575 131.739 27.465 131.739 27.465 129.3 29.579 129.3ZM29.575 128.188 27.465 128.188 27.465 124.364 29.579 124.364ZM32.796 131.739 30.686 131.739 30.686 129.3 32.8 129.3ZM32.796 128.188 30.686 128.188 30.686 124.364 32.8 124.364ZM36.017 131.739 33.908 131.739 33.908 129.3 36.022 129.3ZM36.017 128.188 33.908 128.188 33.908 124.364 36.022 124.364ZM38.943 131.739 37.129 131.739 37.129 129.3 38.948 129.3ZM38.943 128.188 37.129 128.188 37.129 124.364 38.948 124.364Z" id="パス_256" fill="#3B6DA0" transform="translate(-18.22 -84.609)"/></g></svg>