<svg width="17.731" height="30.179" viewBox="0 0 17.731 30.179" xmlns="http://www.w3.org/2000/svg" xmlns:xlink="http://www.w3.org/1999/xlink" overflow="hidden"><g id="お薬アイコン" transform="translate(-105.594 0)"><path d="M165.708 1.38C165.708 0.617847 165.09-4.76837e-09 164.328-4.76837e-09L155.021 0C154.259 2.88658e-15 153.641 0.617847 153.641 1.38L153.641 4.341 165.708 4.341 165.708 1.38Z" id="パス_244" fill="#3B6DA0" transform="translate(-45.215 0)"/><path d="M121.249 102C120.135 101.304 119.504 100.042 119.616 98.733L119.616 98.214 109.3 98.214 109.3 98.733C109.412 100.041 108.782 101.302 107.67 102 106.207 102.73 105.594 103.819 105.594 106.419L105.594 117.5C105.541 120.27 107.743 122.558 110.512 122.612 110.637 122.614 110.762 122.612 110.886 122.605L118.033 122.605C120.799 122.758 123.165 120.64 123.318 117.874 123.325 117.749 123.327 117.625 123.325 117.5L123.325 106.423C123.325 103.823 122.711 102.735 121.249 102ZM120.422 116.4 108.5 116.4 108.5 106.664 120.425 106.664 120.425 116.4Z" id="パス_245" fill="#3B6DA0" transform="matrix(1 0 0 1 0 -92.429)"/><path d="M200.045 277.039 202.085 277.039 202.085 274.617 204.506 274.617 204.506 272.579 202.085 272.579 202.085 270.157 200.045 270.157 200.045 272.579 197.625 272.579 197.625 274.617 200.045 274.617Z" id="パス_246" fill="#3B6DA0" transform="translate(-86.606 -254.232)"/></g></svg>