<svg width="27.76" height="32.194" viewBox="0 0 27.76 32.194" xmlns="http://www.w3.org/2000/svg" xmlns:xlink="http://www.w3.org/1999/xlink" overflow="hidden"><g id="フリーのドル袋アイコン_円_" transform="translate(-35.259 0)"><path d="M190.1 246.228 186.834 246.228 186.482 246.773 186.482 248.081 190.1 248.081 190.1 249.937 186.482 249.937 186.482 252.737 184.24 252.737 184.24 249.937 180.624 249.937 180.624 248.081 184.24 248.081 184.24 246.775 183.889 246.228 180.623 246.228 180.623 244.642 182.868 244.642 180.959 241.672 182.859 241.672 185.359 245.561 187.859 241.672 189.759 241.672 187.851 244.642 190.1 244.642Z" id="パス_233" fill="#3B6DA0" transform="translate(-136.225 -226.476)"/><path d="M62.987 10.987C63.1249 10.4489 62.8009 9.90074 62.263 9.762L58.643 8.833 61.825 7.093C62.3124 6.82625 62.4913 6.21489 62.2245 5.7275 61.9577 5.24011 61.3464 5.06125 60.859 5.328L56.831 7.528 59.3 1.542C59.3596 1.3957 59.2892 1.22883 59.1429 1.16928 59.1374 1.16701 59.1317 1.16491 59.126 1.163 58.1511 0.641709 57.0936 0.292265 56 0.13 53.67 0.13 51.407 1.351 49.346 1.351 48.7192 1.36283 48.0985 1.22574 47.535 0.951 46.3984 0.345226 45.1338 0.0192098 43.846-2.47955e-08 42.2215 0.177173 40.6286 0.574133 39.111 1.18 38.9582 1.21788 38.8651 1.37244 38.903 1.52521 38.9063 1.53878 38.9107 1.55208 38.916 1.565L41.631 8.158C41.133 8.39674 40.9228 8.99401 41.1615 9.49202 41.2377 9.65086 41.3545 9.78678 41.5 9.886 40.174 11.468 36.9 15.705 35.668 20.386 33.889 27.145 37.853 32.194 49.1 32.194 60.347 32.194 64.314 27.145 62.536 20.388 61.4294 16.7963 59.6329 13.4549 57.247 10.551L61.761 11.71C62.2949 11.8515 62.8423 11.5334 62.9838 10.9995 62.9849 10.9953 62.986 10.9912 62.987 10.987ZM43.846 2.515C44.7441 2.53466 45.6245 2.76847 46.414 3.197 47.3268 3.64674 48.3325 3.87589 49.35 3.866 50.6373 3.81437 51.9115 3.58831 53.138 3.194 54.065 2.89074 55.0266 2.70627 56 2.645L56.118 2.645 53.9 8.054 44.308 8.054 42.135 2.774C42.6913 2.61209 43.2667 2.52499 43.846 2.515ZM59.439 26.478C57.847 28.542 54.177 29.678 49.101 29.678 44.025 29.678 40.356 28.541 38.764 26.478 37.726 25.13 37.5 23.3 38.1 21.029 39.477 15.794 43.875 10.983 43.917 10.937L44.725 10.067 53.48 10.067 54.288 10.937C54.332 10.985 58.719 15.761 60.105 21.029 60.7 23.3 60.478 25.13 59.439 26.478Z" id="パス_234" fill="#3B6DA0"/></g></svg>