<svg id="レイヤー_1" data-name="レイヤー 1" xmlns="http://www.w3.org/2000/svg" viewBox="0 0 519.91 467.12"><defs><style>.cls-1{fill:#231815;}</style></defs><path class="cls-1" d="M242.6,488.2c.92-21.34-11.41-42.55-33.41-57.17-15.87-10.54-58.86-23.37-72.29-27.23-.09,0-.18,0-.26,0-5.54-1.61-10.29-.62-12.11,2.51-1.72,3-1.24,8.87,5.82,15.78,17.5,17.13,48.31,42.46,48.61,42.71a6.85,6.85,0,1,1-8.69,10.59c-1.28-1.05-31.58-26-49.5-43.5-10.45-10.23-13.62-23-8.08-32.49a19.63,19.63,0,0,1,2.8-3.62L85,354.3c-11.16-15.08-25.46-15.78-34-10-8.78,5.88-13.48,20-3.1,37.12,3.79,6.24,7.79,13.33,12,20.83,15.91,28.12,24.45,60,44.25,71.6,5.78,3.4,12.24,7,18.89,10.76,19.15,10.75,34.19,22.94,41.84,31.09,10.3,11,23.79,37.8,23.92,38.08a6.87,6.87,0,0,0,6.13,3.78H277.2a6.86,6.86,0,0,0,5.65-10.73Z" transform="translate(-41.99 -90.41)"/><path class="cls-1" d="M552.88,344.27c-8.55-5.75-22.84-5-34,10L488.4,395.76a19.58,19.58,0,0,1,2.79,3.62c5.55,9.5,2.38,22.25-8.06,32.48-17.93,17.55-48.23,42.46-49.51,43.51a6.85,6.85,0,0,1-8.7-10.59c.31-.25,31.12-25.58,48.62-42.71,7.06-6.91,7.54-12.82,5.81-15.78-1.82-3.13-6.57-4.11-12.1-2.51-.09,0-.17,0-.26,0-13.44,3.86-56.43,16.69-72.29,27.23-22,14.62-34.34,35.83-33.41,57.17L321,546.8a6.85,6.85,0,0,0,5.65,10.73H408.9a6.89,6.89,0,0,0,6.14-3.78c.13-.28,13.61-27.12,23.92-38.08,7.65-8.15,22.68-20.34,41.84-31.09,6.64-3.73,13.11-7.36,18.89-10.76,19.8-11.61,28.34-43.48,44.25-71.6,4.24-7.5,8.25-14.59,12-20.83C566.36,364.28,561.65,350.15,552.88,344.27Z" transform="translate(-41.99 -90.41)"/><path class="cls-1" d="M491.16,164.27A107.35,107.35,0,0,0,388.67,90.41c-36.34,0-67.93,18.17-87.11,49.34-19.19-31.17-50.77-49.34-87.11-49.34a107.36,107.36,0,0,0-102.51,73.86C73.35,282.4,228.26,411.51,296.66,461.54a8.3,8.3,0,0,0,9.8,0C374.84,411.51,529.75,282.41,491.16,164.27Z" transform="translate(-41.99 -90.41)"/></svg>