<svg width="30.472" height="30.472" viewBox="0 0 30.472 30.472" xmlns="http://www.w3.org/2000/svg" xmlns:xlink="http://www.w3.org/1999/xlink" overflow="hidden"><g id="情報アイコン"><path d="M26.009 4.462C20.0589-1.48721 10.4127-1.48652 4.46346 4.46354-1.48575 10.4136-1.48506 20.0599 4.465 26.0091 10.4151 31.9583 20.0613 31.9576 26.0105 26.0075 28.8671 23.1506 30.4719 19.276 30.472 15.236 30.4769 11.1939 28.8707 7.3166 26.009 4.462ZM24.018 24.018C19.1678 28.8676 11.3045 28.8671 6.45488 24.0169 1.60527 19.1667 1.60577 11.3034 6.456 6.45376 11.3062 1.60415 19.1695 1.60465 24.0191 6.45488 26.3478 8.78388 27.656 11.9425 27.656 15.236 27.6607 18.5309 26.3513 21.6917 24.018 24.018Z" id="パス_74" fill="#707070"/><path d="M215.275 121.489C216.545 121.489 217.575 120.459 217.575 119.189 217.575 117.919 216.545 116.889 215.275 116.889 214.005 116.889 212.975 117.919 212.975 119.189 212.978 120.458 214.006 121.486 215.275 121.489Z" id="パス_75" fill="#707070" transform="translate(-200.295 -109.924)"/><path d="M204.559 220.613 204.246 220.613C203.926 220.614 203.666 220.354 203.665 220.034 203.665 220.034 203.665 220.033 203.665 220.033L203.665 211.92C203.669 211.754 203.538 211.617 203.372 211.613 203.319 211.612 203.266 211.625 203.219 211.651L199.259 213.851C198.107 214.427 198.659 215.115 199.089 215.097 199.519 215.079 200.796 214.954 200.796 214.954L200.796 220.033C200.796 220.353 200.536 220.613 200.216 220.613 200.216 220.613 200.215 220.613 200.215 220.613L199.6 220.613C199.44 220.614 199.311 220.743 199.31 220.903L199.31 222.17C199.311 222.33 199.44 222.459 199.6 222.46L204.56 222.46C204.72 222.459 204.849 222.33 204.85 222.17L204.85 220.9C204.848 220.741 204.718 220.613 204.559 220.613Z" id="パス_76" fill="#707070" transform="translate(-186.754 -199.021)"/></g></svg>