<svg width="11" height="11" viewBox="0 0 11 11" xmlns="http://www.w3.org/2000/svg" xmlns:xlink="http://www.w3.org/1999/xlink" id="Free_Clock_icon_part_2無料の時計のアイコン_2" overflow="hidden"><path d="M5.5 0C2.46243 0 8.88178e-16 2.46243 1.77636e-15 5.5 2.66454e-15 8.53757 2.46243 11 5.5 11 8.53757 11 11 8.53757 11 5.5 10.9967 2.4638 8.5362 0.0033068 5.5-2.66454e-15ZM5.5 9.69C3.18593 9.69 1.31 7.81407 1.31 5.5 1.31 3.18593 3.18593 1.31 5.5 1.31 7.81407 1.31 9.69 3.18593 9.69 5.5 9.6845 7.81179 7.81179 9.6845 5.5 9.69Z" id="パス_33" fill="#989898"/><path d="M156.631 115.758C156.355 115.758 156.131 115.982 156.131 116.258L156.131 118.514 154.54 120.105C154.374 120.326 154.419 120.639 154.64 120.805 154.818 120.938 155.062 120.938 155.24 120.805L157.123 118.922 157.123 116.253C157.12 115.982 156.902 115.762 156.631 115.758Z" id="パス_34" fill="#989898" transform="translate(-151.079 -113.271)"/></svg>