<svg width="14.87" height="9.173" viewBox="0 0 14.87 9.173" xmlns="http://www.w3.org/2000/svg" xmlns:xlink="http://www.w3.org/1999/xlink" overflow="hidden"><g id="人物アイコン_チーム" transform="translate(0.001 -98.078)"><path d="M4.285 157.764C4.285 157.741 4.275 157.72 4.275 157.696L4.275 157.496C4.27472 157.402 4.29027 157.309 4.321 157.22 4.63587 156.78 4.88139 156.295 5.049 155.781 4.75299 155.197 4.58652 154.557 4.561 153.903 4.56187 153.752 4.57088 153.601 4.588 153.451 4.25478 153.099 3.79062 152.901 3.306 152.904 2.23256 152.944 1.39499 153.847 1.43522 154.921 1.43679 154.962 1.43972 155.004 1.444 155.046 1.5265 155.834 1.81978 156.585 2.293 157.221 2.32296 157.31 2.33816 157.403 2.338 157.497L2.338 157.697C2.33788 157.944 2.19376 158.169 1.969 158.272L0.622 158.822C0.308321 158.966 0.084427 159.254 0.022 159.593L-0.001 159.893C-0.0258528 160.199 0.201664 160.466 0.507173 160.491 0.522084 160.492 0.537039 160.493 0.552 160.493L2.752 160.493 2.842 159.333 2.848 159.302C2.95897 158.693 3.35974 158.176 3.922 157.917Z" id="パス_102" fill="#4B4B4B" transform="matrix(1 0 0 1 0 -53.236)"/><path d="M343.141 159.593C343.079 159.253 342.855 158.966 342.541 158.822L341.193 158.272C340.968 158.169 340.825 157.944 340.825 157.697L340.825 157.497C340.825 157.403 340.84 157.31 340.871 157.221 341.344 156.585 341.637 155.834 341.719 155.046 341.829 153.978 341.053 153.023 339.985 152.913 339.942 152.909 339.899 152.906 339.856 152.904 339.371 152.901 338.907 153.1 338.574 153.452 338.592 153.602 338.601 153.752 338.602 153.903 338.577 154.557 338.41 155.197 338.115 155.781 338.282 156.295 338.528 156.781 338.843 157.22 338.873 157.309 338.889 157.402 338.889 157.496L338.889 157.696C338.889 157.719 338.881 157.74 338.879 157.764L339.213 157.9C339.787 158.156 340.198 158.677 340.313 159.294L340.318 159.326 340.408 160.487 342.608 160.487C342.915 160.487 343.163 160.238 343.163 159.932 343.163 159.917 343.162 159.902 343.161 159.887Z" id="パス_103" fill="#4B4B4B" transform="translate(-328.297 -53.236)"/><path d="M123.627 105.238 122 104.571C121.727 104.445 121.552 104.172 121.554 103.871L121.554 103.63C121.554 103.516 121.573 103.403 121.61 103.296 122.182 102.527 122.536 101.618 122.636 100.665 122.812 99.4204 121.946 98.2686 120.702 98.0923 119.457 97.916 118.305 98.782 118.129 100.027 118.099 100.238 118.099 100.453 118.129 100.665 118.228 101.618 118.583 102.527 119.155 103.296 119.192 103.403 119.211 103.516 119.211 103.63L119.211 103.871C119.212 104.172 119.037 104.445 118.764 104.571L117.133 105.238C116.754 105.412 116.484 105.761 116.41 106.171L116.326 107.251 124.439 107.251 124.356 106.171C124.28 105.76 124.008 105.411 123.627 105.238Z" id="パス_104" fill="#4B4B4B" transform="translate(-112.944 0)"/></g></svg>