<svg width="15.682" height="21.287" viewBox="0 0 15.682 21.287" xmlns="http://www.w3.org/2000/svg" xmlns:xlink="http://www.w3.org/1999/xlink" overflow="hidden"><path d="M109.653 42.132C109.69 42.779 110.171 43.3138 110.81 43.419 110.821 43.629 110.836 43.831 110.846 44.013 110.846 44.074 110.856 44.137 110.861 44.2 110.744 44.427 110.701 44.6854 110.74 44.938 110.779 45.0731 110.865 45.1898 110.983 45.267 111.007 45.284 111.032 45.2991 111.059 45.312 111.153 45.6784 111.268 46.039 111.404 46.392 111.286 46.539 111.227 46.7247 111.238 46.913 111.245 46.9762 111.26 47.0381 111.284 47.097 111.493 47.611 112.201 47.735 112.649 47.948 112.916 48.1284 113.209 48.2658 113.519 48.355 113.542 48.355 113.567 48.355 113.591 48.355L113.591 51.241 113.429 51.3C113.129 51.25 112.829 51.2 112.542 51.142 112.142 51.059 110.923 50.942 110.727 51.459 110.715 51.491 110.707 51.5247 110.705 51.559 110.418 51.884 110.187 52.403 110.543 52.459 110.594 52.4648 110.643 52.4411 110.671 52.398 110.728 52.4924 110.81 52.5692 110.908 52.62 110.789 52.7469 110.694 52.8934 110.625 53.053 110.24 53.372 109.802 54.163 110.274 54.24 110.332 54.2465 110.388 54.2197 110.419 54.171 110.535 54.429 110.838 54.5442 111.096 54.4283 111.216 54.3745 111.31 54.2766 111.36 54.155 111.403 54.0807 111.432 53.9995 111.446 53.915 111.472 53.7647 111.436 53.6104 111.346 53.487 111.365 53.4712 111.381 53.4519 111.393 53.43 111.78 53.237 112.199 52.913 112.487 52.767 112.697 52.661 112.928 52.549 113.172 52.441 113.341 52.505 113.511 52.569 113.686 52.621 114.233 52.7699 114.768 52.9601 115.286 53.19 115.532 53.3096 115.786 53.4132 116.046 53.5 115.964 53.6214 115.933 53.7698 115.958 53.914 115.972 53.9984 116.001 54.0797 116.043 54.154 116.149 54.416 116.448 54.5422 116.71 54.4358 116.833 54.3861 116.931 54.2908 116.985 54.17 117.016 54.2187 117.072 54.2455 117.13 54.239 117.518 54.177 117.291 53.63 116.983 53.261 116.986 53.1631 116.975 53.0653 116.948 52.971 116.868 52.728 116.703 52.5224 116.482 52.393 116.513 52.3605 116.54 52.325 116.564 52.287 116.592 52.3299 116.641 52.3535 116.692 52.348 116.976 52.302 116.886 51.963 116.692 51.663 116.749 51.584 116.728 51.471 116.575 51.307 116.25 51.0236 115.828 50.877 115.397 50.898 115.045 50.8935 114.693 50.9321 114.35 51.013L114.35 48.242C114.456 48.217 114.561 48.194 114.66 48.18 115.124 48.114 115.577 47.974 116.042 47.911 116.808 47.811 117.379 47.697 117.385 46.866 117.486 46.853 117.587 46.8326 117.685 46.805 117.629 47.1936 117.622 47.5877 117.665 47.978 117.691 48.458 117.707 48.961 117.75 49.442 117.781 49.783 117.726 50.734 118.097 50.86 118.18 51.2366 118.195 51.6253 118.139 52.007 118.066 52.307 117.847 52.475 118.02 52.826 118.032 52.8497 118.046 52.8724 118.062 52.894 118.103 53.0096 118.162 53.1182 118.236 53.216 118.259 53.248 118.269 53.285 118.305 53.303 118.326 53.3115 118.348 53.3149 118.37 53.313 118.4 53.3126 118.431 53.3106 118.461 53.307 118.504 53.3082 118.547 53.3011 118.588 53.286 118.612 53.2615 118.629 53.2307 118.637 53.197 118.661 53.132 118.659 53.063 118.68 52.997 118.68 52.985 118.685 52.972 118.688 52.957 118.724 52.9542 118.76 52.9542 118.796 52.957 119.056 52.9878 119.314 53.0407 119.565 53.115 119.96 53.2454 120.389 53.2189 120.765 53.041 120.932 52.9347 121 52.7252 120.928 52.541 120.853 52.341 120.712 52.325 120.511 52.275 119.911 52.127 119.421 52.062 119.318 51.369 119.294 51.208 119.326 50.8 119.318 50.369 119.365 49.925 119.363 49.469 119.375 49.029 119.395 48.273 119.402 47.513 119.365 46.755 119.392 46.778 119.418 46.81 119.465 46.855 119.559 46.9603 119.687 47.0282 119.827 47.046 119.939 47.3279 120.004 47.6268 120.017 47.93 120.287 49.0061 120.627 50.0634 121.035 51.095 121.114 51.365 121.157 51.918 121.443 52.053 121.487 52.0728 121.535 52.0846 121.583 52.088 121.6 52.1706 121.597 52.2561 121.573 52.337 121.541 52.4589 121.52 52.5834 121.509 52.709 121.493 52.8114 121.493 52.9156 121.509 53.018 121.499 53.1968 121.539 53.3748 121.625 53.532 121.65 53.581 121.678 53.675 121.725 53.704 121.791 53.7308 121.861 53.746 121.932 53.749 122.057 53.774 122.185 53.7787 122.311 53.763 122.347 53.6791 122.37 53.5905 122.381 53.5 122.486 53.513 122.594 53.527 122.7 53.548 123.072 53.622 123.392 53.801 123.755 53.904 124.046 53.9754 124.349 53.9754 124.64 53.904 124.84 53.857 125.26 53.681 125.305 53.438 125.378 53.038 124.488 53.109 124.253 52.992 123.806 52.8144 123.401 52.5437 123.066 52.198 122.957 52.0837 122.866 51.9532 122.796 51.811 122.787 51.788 122.779 51.765 122.771 51.743 122.822 51.6306 122.831 51.5036 122.797 51.385 122.697 50.898 122.513 50.392 122.397 49.885 122.211 49.09 122.111 48.285 121.938 47.485 121.838 47.017 121.765 46.544 121.674 46.074 121.659 45.7834 121.504 45.5181 121.258 45.362 120.788 45.1818 120.295 45.0667 119.794 45.02 119.56 44.992 119.333 44.935 119.103 44.886 118.963 44.586 118.753 44.619 118.368 44.6 118.079 44.585 117.795 44.515 117.507 44.491 117.173 44.464 116.824 44.491 116.494 44.446 116.164 44.401 115.817 44.393 115.479 44.364 115.413 44.134 115.309 43.893 115.244 43.72 115.185 43.3817 115.151 43.0394 115.144 42.696 115.103 42.4739 115.098 42.2465 115.131 42.023 115.383 42.273 115.601 42.549 115.861 42.791 115.992 42.9434 116.2 43.0058 116.393 42.951 116.721 42.8487 117.026 42.6852 117.293 42.469 117.511 42.301 117.987 42.022 118.024 41.721 118.025 41.7053 118.025 41.6897 118.024 41.674L118.073 41.651C118.18 41.596 118.297 41.535 118.398 41.475 118.459 41.439 118.458 41.416 118.533 41.435 118.63 41.4752 118.738 41.4826 118.84 41.456 118.967 41.3838 119.089 41.3015 119.203 41.21 119.226 41.2956 119.244 41.3824 119.258 41.47 119.295 41.584 119.34 41.488 119.395 41.436 119.414 41.515 119.474 41.489 119.512 41.436 119.547 41.3655 119.562 41.2864 119.554 41.208 119.554 41.152 119.575 41.054 119.533 41.008 119.491 40.962 119.42 40.983 119.389 40.931 119.358 40.879 119.384 40.825 119.313 40.788 119.29 40.776 119.267 40.788 119.246 40.765 119.225 40.742 119.239 40.708 119.231 40.691 119.207 40.6432 119.161 40.6101 119.108 40.602 119.029 40.593 119.023 40.619 118.964 40.568 118.864 40.485 118.802 40.528 118.697 40.58 118.523 40.6664 118.36 40.7728 118.211 40.897 118.082 41.0048 117.942 41.0983 117.793 41.176 117.713 41.0705 117.596 40.9991 117.465 40.976 117.477 40.9254 117.485 40.8739 117.49 40.822L117.49 40.8C117.543 40.77 117.599 40.7455 117.657 40.727 117.791 40.6768 117.941 40.7278 118.017 40.849 118.042 40.88 118.076 40.949 118.117 40.949 118.175 40.959 118.192 40.907 118.184 40.861 118.169 40.7951 118.148 40.7306 118.123 40.668 118.096 40.599 118.016 40.581 117.96 40.543 117.904 40.505 117.853 40.457 117.793 40.419 117.7 40.3443 117.595 40.2871 117.482 40.25 117.399 40.239 117.387 40.316 117.363 40.383 117.328 40.3691 117.29 40.3656 117.253 40.373 117.018 40.4294 116.787 40.506 116.565 40.602 116.433 40.644 116.301 40.692 116.172 40.746 115.954 40.24 115.823 39.692 115.6 39.189 115.587 39.145 115.574 39.1 115.56 39.054 115.378 38.446 115.251 37.654 114.633 37.321L114.624 37.316C114.502 37.1914 114.363 37.0847 114.211 36.999 114.223 36.9323 114.233 36.863 114.24 36.791 114.414 36.8212 114.59 36.7577 114.705 36.624 114.772 36.4855 114.823 36.3395 114.856 36.189 114.954 36.0149 115.017 35.8233 115.042 35.625 115.042 35.453 114.973 35.275 114.981 35.104 114.996 35.0259 115.023 34.9505 115.06 34.88 115.081 34.8146 115.097 34.7478 115.108 34.68 115.432 34.646 115.194 33.897 115.008 33.701 114.876 33.5409 114.678 33.4502 114.471 33.455 114.46 33.4544 114.45 33.4544 114.439 33.455 114.382 33.4186 114.323 33.3852 114.263 33.355 113.759 33.0083 113.072 33.1189 112.702 33.606 112.46 33.9327 112.342 34.3352 112.37 34.741 112.362 35.0442 112.456 35.3413 112.636 35.585 112.503 35.6356 112.395 35.7366 112.336 35.866 112.146 36.289 112.461 36.551 112.793 36.633 112.727 36.651 112.661 36.673 112.588 36.696 112.358 36.768 112.332 36.777 112.275 37.026 112.258 37.099 112.239 37.175 112.222 37.252 112.195 37.366 112.011 37.552 111.945 37.662 111.832 37.8622 111.738 38.0724 111.664 38.29 111.528 38.7223 111.453 39.1718 111.443 39.625 111.432 40.008 111.448 40.3912 111.49 40.772 111.069 40.664 110.305 40.497 109.931 40.787 109.636 41.037 109.6 41.782 109.653 42.132ZM115.245 51.826C115.39 51.8117 115.535 51.8077 115.68 51.814 115.661 51.8697 115.652 51.9282 115.653 51.987 115.511 51.931 115.371 51.878 115.245 51.826ZM111.716 52.069 111.582 52.143C111.585 52.1121 111.585 52.0809 111.582 52.05 111.629 52.058 111.673 52.063 111.716 52.07Z" id="パス_47" fill="#696969" transform="translate(-109.633 -33.198)"/></svg>