<svg width="53.726" height="62.371" viewBox="0 0 53.726 62.371" xmlns="http://www.w3.org/2000/svg" xmlns:xlink="http://www.w3.org/1999/xlink" overflow="hidden"><g id="クリスマスベルの無料アイコン2" transform="translate(-35.481 0)"><path d="M87.547 42.518C85.9212 40.3129 84.5146 37.9544 83.347 35.476 82.0286 32.4566 81.173 29.2556 80.809 25.981 80.4957 23.2887 79.8031 20.6543 78.752 18.156 78.0536 16.5219 77.1271 14.995 76 13.621 74.3974 11.6805 72.3477 10.1579 70.027 9.184 69.1986 8.83399 68.3435 8.55075 67.47 8.337L67.47 8.337C68.9001 5.50718 67.7654 2.05382 64.9356 0.623694 62.1058-0.806427 58.6524 0.328253 57.2223 3.15807 56.4617 4.6631 56.4013 6.42642 57.057 7.98 57.108 8.103 57.164 8.222 57.224 8.339L57.224 8.339C56.6232 8.48656 56.0307 8.66615 55.449 8.877 53.8803 9.44133 52.4113 10.2514 51.097 11.277 49.0686 12.9007 47.4378 14.9663 46.329 17.316 45.0485 20.051 44.2237 22.9769 43.887 25.978 43.521 29.2525 42.6645 32.4534 41.346 35.473 40.1776 37.951 38.771 40.3094 37.146 42.515 36.0728 44.028 35.4921 45.835 35.483 47.69 35.4827 48.5537 35.6177 49.4121 35.883 50.234 36.2559 51.4365 36.9536 52.5126 37.899 53.344 38.3841 53.7631 38.9379 54.0953 39.536 54.326 40.1599 54.5656 40.8227 54.688 41.491 54.687L53.839 54.687C53.923 55.5342 54.1343 56.3639 54.466 57.148 56.3048 61.4991 61.3227 63.5357 65.6738 61.6969 67.2016 61.0512 68.5088 59.9753 69.436 58.6 70.2241 57.4332 70.7099 56.089 70.85 54.688L83.2 54.688C84.0863 54.6893 84.9595 54.4733 85.743 54.059 86.3019 53.7619 86.8086 53.3754 87.243 52.915 87.8845 52.2283 88.3802 51.4187 88.7 50.535 89.034 49.6245 89.2033 48.6618 89.2 47.692 89.1927 45.8386 88.6156 44.0323 87.547 42.518ZM60.5 4.966C60.652 4.60849 60.9041 4.30254 61.226 4.085 61.7865 3.70804 62.4992 3.6385 63.122 3.9 63.4783 4.05321 63.783 4.30555 64 4.627 64.3758 5.18733 64.4445 5.89909 64.183 6.521 64.0313 6.87872 63.7791 7.18476 63.457 7.402 62.8967 7.77778 62.1849 7.84655 61.563 7.585 61.2053 7.43333 60.8992 7.18114 60.682 6.859 60.3071 6.29868 60.2387 5.58749 60.5 4.966ZM44.756 37.008C46.2238 33.6536 47.1801 30.0981 47.593 26.46 47.8611 24.1193 48.458 21.828 49.366 19.654 49.9237 18.3438 50.6644 17.1192 51.566 16.017 52.7853 14.5346 54.3478 13.372 56.118 12.63 58.0955 11.8346 60.2129 11.4452 62.344 11.485 64.2556 11.4568 66.1574 11.7638 67.963 12.392 69.1607 12.8228 70.2819 13.4423 71.284 14.227 72.8682 15.5006 74.1395 17.1204 75 18.962 76.0995 21.332 76.806 23.8651 77.092 26.462 77.505 30.1001 78.4613 33.6556 79.929 37.01 80.7593 38.8323 81.7323 40.5861 82.839 42.255L41.849 42.255C42.955 40.5855 43.927 38.831 44.756 37.008ZM66.775 55.69C66.41 56.5496 65.8039 57.2852 65.03 57.808 63.6828 58.7134 61.9702 58.8795 60.474 58.25 59.6155 57.8849 58.8807 57.2797 58.358 56.507 57.9872 55.9597 57.7341 55.3413 57.615 54.691L67.073 54.691C67.0107 55.034 66.9108 55.369 66.775 55.69ZM85.249 49.084C85.0874 49.6286 84.7804 50.1189 84.361 50.502 84.1994 50.6432 84.0147 50.7555 83.815 50.834 83.6199 50.9095 83.4122 50.9475 83.203 50.946L41.485 50.946C41.2059 50.9462 40.9311 50.8775 40.685 50.746 40.4847 50.6385 40.3039 50.4983 40.15 50.331 39.8575 50.013 39.633 49.6387 39.49 49.231 39.3103 48.7362 39.2196 48.2134 39.222 47.687 39.2282 46.7073 39.5099 45.7491 40.035 44.922L84.652 44.922C85.1758 45.7496 85.4567 46.7076 85.463 47.687 85.4657 48.161 85.3935 48.6325 85.249 49.084Z" id="パス_125" fill="#4B4B4B"/></g></svg>