<svg width="33.479" height="28.318" viewBox="0 0 33.479 28.318" xmlns="http://www.w3.org/2000/svg" xmlns:xlink="http://www.w3.org/1999/xlink" overflow="hidden"><g id="紅茶アイコン" transform="matrix(1 0 0 1 0 -39.459)"><rect x="0" y="0" width="28.374" height="3.021" id="長方形_422" fill="#3B6DA0" transform="matrix(1 0 0 1 0 64.756)"/><path d="M33.168 41.871C32.5501 40.4086 31.1166 39.4584 29.529 39.459L17.477 39.459 17.477 46.312 19.743 48.365C19.9736 48.5736 20.1051 48.8701 20.105 49.181L20.105 51.931C20.105 52.5385 19.6125 53.031 19.005 53.031L14.731 53.031C14.1235 53.031 13.631 52.5385 13.631 51.931L13.631 49.181C13.6307 48.8702 13.7618 48.5738 13.992 48.365L16.182 46.382 16.182 39.459 3.346 39.459C1.49978 39.4584 0.00220761 40.9538-4.3869e-08 42.8L0 49.057C0.003789 56.5068 6.04609 62.5429 13.4959 62.5391 18.5103 62.5366 23.1096 59.7526 25.437 55.311 25.473 55.311 25.511 55.311 25.548 55.311 29.9271 55.3116 33.4774 51.7621 33.478 47.383 33.478 47.3823 33.478 47.3817 33.478 47.381L33.478 43.401C33.4773 42.8755 33.372 42.3553 33.168 41.871ZM30.458 44.484 30.458 47.384C30.4612 49.6881 28.8586 51.6833 26.608 52.177 26.8504 51.1544 26.9729 50.107 26.973 49.056L26.973 42.48 29.529 42.48C29.653 42.4792 29.7758 42.5037 29.89 42.552 30.0561 42.6229 30.1981 42.7402 30.299 42.89 30.4027 43.0432 30.4578 43.224 30.457 43.409 30.457 43.409 30.457 43.794 30.457 44.484Z" id="パス_201" fill="#3B6DA0"/></g></svg>