<svg width="65.969" height="65.97" viewBox="0 0 65.969 65.97" xmlns="http://www.w3.org/2000/svg" xmlns:xlink="http://www.w3.org/1999/xlink" id="フリーのギアアイコン" overflow="hidden"><path d="M63.908 37.879C65.0718 37.7882 65.9699 36.8173 65.97 35.65L65.97 30.319C65.97 29.1513 65.0721 28.1798 63.908 28.088L56.844 27.536C56.3961 27.5023 56.0055 27.2186 55.835 26.803L53.512 21.2C53.3374 20.7866 53.4122 20.31 53.705 19.97L58.311 14.583C59.0698 13.6958 59.018 12.374 58.192 11.549L54.424 7.777C53.599 6.95102 52.2772 6.89918 51.39 7.658L46 12.264C45.6604 12.557 45.185 12.6343 44.77 12.464L39.161 10.139C38.7466 9.9666 38.463 9.57733 38.426 9.13L37.876 2.068C37.7887 0.902752 36.8185 0.00143902 35.65 7.82013e-08L30.319 0C29.1508-0.000288118 28.1794 0.899183 28.09 2.064L27.538 9.126C27.5034 9.5736 27.22 9.9637 26.805 10.135L21.2 12.46C20.7842 12.6289 20.309 12.5518 19.968 12.26L14.58 7.658C13.6928 6.89918 12.371 6.95102 11.546 7.777L7.777 11.546C6.95197 12.3715 6.90016 13.6925 7.658 14.58L12.264 19.967C12.5548 20.308 12.6294 20.7834 12.457 21.197L10.135 26.8C9.96516 27.2153 9.57536 27.499 9.128 27.533L2.062 28.084C0.896351 28.176-0.00205372 29.1497 3.62396e-08 30.319L0 35.648C-0.000446701 36.8159 0.897659 37.7876 2.062 37.879L9.128 38.429C9.57516 38.4652 9.96423 38.7491 10.135 39.164L12.458 44.771C12.6293 45.1844 12.5547 45.659 12.265 46L7.658 51.39C6.90065 52.2777 6.95244 53.5983 7.777 54.424L11.546 58.193C12.3716 59.0184 13.6933 59.0694 14.58 58.31L19.965 53.7C20.308 53.4091 20.7854 53.3357 21.2 53.51L26.809 55.833C27.2241 56.0052 27.5074 56.3959 27.542 56.844L28.094 63.906C28.1843 65.0704 29.1551 65.9693 30.323 65.97L35.65 65.97C36.8179 65.9693 37.7887 65.0704 37.879 63.906L38.429 56.844C38.4653 56.3959 38.749 56.0057 39.164 55.833L44.773 53.51C45.1852 53.338 45.6591 53.4114 46 53.7L51.387 58.306C52.2737 59.0654 53.5954 59.0144 54.421 58.189L58.19 54.42C59.016 53.595 59.0678 52.2732 58.309 51.386L53.705 46C53.4141 45.6583 53.3395 45.1823 53.512 44.768L55.835 39.161C56.0074 38.7466 56.3967 38.463 56.844 38.426ZM32.985 44.132C26.8292 44.1297 21.8409 39.1376 21.8432 32.9818 21.8455 26.8261 26.8376 21.8377 32.9934 21.84 39.1491 21.8423 44.1375 26.8344 44.1352 32.9902 44.1341 35.9456 42.9592 38.7796 40.869 40.869 38.7817 42.9651 35.9431 44.14 32.985 44.132Z" id="パス_143" fill="#4B4B4B"/></svg>