<svg width="26.306" height="35.708" viewBox="0 0 26.306 35.708" xmlns="http://www.w3.org/2000/svg" xmlns:xlink="http://www.w3.org/1999/xlink" overflow="hidden"><path d="M109.667 48.184C109.729 49.2693 110.535 50.1664 111.608 50.343 111.627 50.695 111.652 51.035 111.668 51.343 111.673 51.443 111.685 51.551 111.694 51.657 111.498 52.0381 111.428 52.4716 111.494 52.895 111.56 53.1218 111.705 53.3175 111.902 53.447 111.943 53.4757 111.985 53.5011 112.03 53.523 112.187 54.1377 112.38 54.7427 112.608 55.335 112.41 55.5819 112.311 55.8939 112.33 56.21 112.341 56.3162 112.368 56.4202 112.408 56.519 112.758 57.382 113.946 57.589 114.698 57.947 115.146 58.2498 115.639 58.4803 116.158 58.63 116.197 58.63 116.238 58.63 116.279 58.636L116.279 63.476C116.187 63.508 116.096 63.542 116.007 63.576 115.507 63.492 115.007 63.413 114.518 63.311 113.854 63.172 111.801 62.975 111.474 63.842 111.452 63.8979 111.44 63.957 111.437 64.017 110.955 64.563 110.568 65.433 111.165 65.529 111.25 65.5394 111.333 65.5006 111.38 65.429 111.476 65.5881 111.615 65.7173 111.78 65.802 111.581 66.0148 111.421 66.2605 111.306 66.528 110.661 67.063 109.925 68.39 110.718 68.519 110.815 68.5303 110.909 68.4857 110.962 68.404 111.156 68.8368 111.665 69.0303 112.097 68.8361 112.299 68.7457 112.458 68.5813 112.541 68.377 112.612 68.2532 112.661 68.1178 112.685 67.977 112.729 67.7255 112.671 67.4667 112.522 67.259 112.554 67.2326 112.58 67.2004 112.6 67.164 113.249 66.84 113.951 66.297 114.436 66.052 114.788 65.875 115.176 65.687 115.585 65.506 115.868 65.614 116.154 65.72 116.448 65.806 117.364 66.0558 118.26 66.3747 119.128 66.76 119.542 66.9607 119.968 67.1344 120.404 67.28 120.267 67.4838 120.213 67.7329 120.256 67.975 120.28 68.1157 120.328 68.2511 120.399 68.375 120.578 68.8145 121.079 69.0259 121.518 68.8473 121.724 68.7638 121.889 68.6043 121.979 68.402 122.032 68.4839 122.126 68.5286 122.223 68.517 122.874 68.417 122.492 67.496 121.977 66.876 121.983 66.7119 121.963 66.548 121.918 66.39 121.784 65.9823 121.505 65.6377 121.135 65.421 121.187 65.3668 121.232 65.3075 121.272 65.244 121.319 65.3153 121.402 65.354 121.487 65.344 121.964 65.268 121.813 64.699 121.487 64.194 121.582 64.061 121.548 63.871 121.287 63.594 120.742 63.1187 120.034 62.8728 119.311 62.908 118.72 62.9 118.13 62.9645 117.554 63.1L117.554 58.434C117.732 58.393 117.907 58.354 118.074 58.334 118.853 58.222 119.612 57.988 120.392 57.883 121.678 57.71 122.634 57.524 122.645 56.13 122.816 56.1091 122.985 56.0757 123.151 56.03 123.057 56.6816 123.046 57.3426 123.118 57.997 123.162 58.802 123.188 59.646 123.261 60.453 123.313 61.026 123.221 62.621 123.844 62.832 123.984 63.4641 124.008 64.1164 123.914 64.757 123.792 65.257 123.424 65.543 123.714 66.13 123.735 66.1701 123.758 66.2085 123.785 66.245 123.854 66.4388 123.952 66.6209 124.076 66.785 124.114 66.839 124.131 66.901 124.191 66.93 124.226 66.9444 124.264 66.9503 124.301 66.947 124.352 66.9467 124.403 66.9437 124.454 66.938 124.526 66.9397 124.598 66.9275 124.666 66.902 124.707 66.8607 124.735 66.8087 124.748 66.752 124.788 66.643 124.785 66.527 124.82 66.42 124.826 66.4 124.829 66.378 124.834 66.354 124.894 66.3477 124.955 66.346 125.015 66.349 125.452 66.4007 125.883 66.4893 126.305 66.614 126.967 66.8325 127.687 66.7881 128.317 66.49 128.593 66.3109 128.707 65.9638 128.591 65.656 128.465 65.319 128.229 65.294 127.891 65.21 126.891 64.962 126.063 64.853 125.891 63.689 125.851 63.419 125.904 62.735 125.891 62.019 125.97 61.275 125.967 60.509 125.991 59.772 126.025 58.504 126.035 57.229 125.974 55.958 126.019 55.996 126.063 56.05 126.147 56.129 126.304 56.3061 126.52 56.4202 126.755 56.45 126.944 56.9226 127.051 57.4236 127.074 57.932 127.353 59.79 128.269 61.45 128.782 63.242 128.915 63.695 128.982 64.623 129.466 64.85 129.54 64.8827 129.619 64.9023 129.7 64.908 129.729 65.0466 129.723 65.1901 129.683 65.326 129.629 65.5305 129.593 65.7393 129.575 65.95 129.546 66.1213 129.545 66.2961 129.57 66.468 129.553 66.7681 129.62 67.0671 129.764 67.331 129.805 67.413 129.853 67.571 129.931 67.619 130.042 67.6639 130.16 67.6893 130.279 67.694 130.488 67.7357 130.703 67.7435 130.915 67.717 130.975 67.5764 131.015 67.4279 131.033 67.276 131.21 67.298 131.39 67.321 131.569 67.357 132.192 67.481 132.73 67.782 133.339 67.957 133.827 68.0745 134.337 68.0721 134.824 67.95 135.164 67.871 135.865 67.576 135.939 67.168 136.061 66.492 134.569 66.616 134.175 66.42 133.425 66.1218 132.746 65.6678 132.184 65.088 132 64.896 131.848 64.6768 131.731 64.438 131.716 64.4 131.703 64.361 131.689 64.323 131.775 64.1347 131.79 63.9218 131.733 63.723 131.558 62.906 131.257 62.057 131.059 61.21 130.747 59.877 130.578 58.521 130.29 57.18 130.121 56.395 129.999 55.601 129.848 54.814 129.824 54.3253 129.562 53.8793 129.148 53.619 128.359 53.3165 127.533 53.1234 126.692 53.045 126.299 52.999 125.918 52.902 125.532 52.82 125.298 52.32 124.945 52.373 124.299 52.34 123.815 52.315 123.337 52.197 122.854 52.157 122.294 52.111 121.708 52.164 121.154 52.082 120.6 52 120.018 51.993 119.454 51.945 119.343 51.559 119.169 51.155 119.06 50.865 118.963 50.2972 118.909 49.7229 118.9 49.147 118.83 48.7748 118.822 48.3937 118.877 48.019 119.299 48.438 119.665 48.902 120.102 49.308 120.322 49.564 120.67 49.669 120.995 49.577 121.541 49.4045 122.05 49.1304 122.495 48.769 122.86 48.488 123.659 48.019 123.722 47.515 123.724 47.4884 123.724 47.4616 123.722 47.435L123.804 47.396C123.983 47.304 124.18 47.196 124.35 47.096 124.45 47.036 124.45 46.996 124.577 47.03 124.74 47.0971 124.92 47.1094 125.091 47.065 125.305 46.9441 125.508 46.8063 125.7 46.653 125.738 46.7963 125.769 46.9415 125.792 47.088 125.854 47.278 125.93 47.118 126.022 47.032 126.053 47.165 126.155 47.121 126.222 47.032 126.281 46.9139 126.306 46.7815 126.293 46.65 126.293 46.556 126.328 46.392 126.258 46.322 126.188 46.252 126.069 46.28 126.017 46.193 125.965 46.106 126.008 46.016 125.89 45.953 125.852 45.933 125.812 45.953 125.778 45.914 125.762 45.896 125.766 45.819 125.753 45.79 125.712 45.7097 125.635 45.6542 125.546 45.641 125.413 45.625 125.403 45.669 125.304 45.583 125.142 45.443 125.032 45.517 124.856 45.603 124.564 45.7477 124.29 45.9259 124.04 46.134 123.824 46.3147 123.589 46.4716 123.34 46.602 123.205 46.4264 123.008 46.308 122.79 46.27 122.81 46.1851 122.824 46.0989 122.831 46.012L122.831 45.95C122.92 45.8995 123.013 45.8583 123.11 45.827 123.332 45.7426 123.583 45.8262 123.71 46.027 123.752 46.079 123.81 46.188 123.88 46.2 123.98 46.217 124.006 46.129 123.993 46.052 123.968 45.9415 123.935 45.8331 123.893 45.728 123.848 45.613 123.713 45.582 123.619 45.519 123.525 45.456 123.439 45.375 123.34 45.311 123.185 45.1859 123.008 45.09 122.818 45.028 122.678 45.009 122.659 45.138 122.618 45.252 122.559 45.2285 122.495 45.2225 122.433 45.235 122.038 45.3296 121.652 45.4581 121.279 45.619 121.057 45.689 120.836 45.77 120.619 45.861 120.254 45.012 120.034 44.093 119.659 43.25 119.638 43.1753 119.616 43.0997 119.593 43.023 119.287 42.004 119.075 40.667 118.037 40.117L118.021 40.108C117.816 39.8994 117.583 39.7206 117.329 39.577 117.349 39.4617 117.365 39.3457 117.377 39.229 117.668 39.2788 117.963 39.173 118.156 38.95 118.269 38.7176 118.354 38.4726 118.409 38.22 118.573 37.9279 118.679 37.6066 118.72 37.274 118.72 36.985 118.604 36.687 118.62 36.401 118.646 36.27 118.691 36.1433 118.753 36.025 118.788 35.9164 118.814 35.8055 118.833 35.693 119.377 35.637 118.978 34.379 118.664 34.051 118.443 33.7825 118.111 33.6302 117.764 33.638 117.746 33.6393 117.728 33.6416 117.71 33.645 117.613 33.5851 117.513 33.5304 117.41 33.481 116.565 32.8993 115.411 33.0847 114.791 33.902 114.386 34.4491 114.188 35.1227 114.235 35.802 114.222 36.3102 114.379 36.8084 114.681 37.217 114.459 37.3026 114.28 37.4716 114.181 37.688 113.862 38.398 114.391 38.838 114.948 38.974 114.838 39.004 114.726 39.04 114.604 39.074 114.218 39.194 114.174 39.21 114.078 39.628 114.049 39.751 114.018 39.878 113.988 40.008 113.942 40.198 113.634 40.508 113.523 40.696 113.334 41.0317 113.176 41.3842 113.052 41.749 112.823 42.4741 112.699 43.2279 112.682 43.988 112.664 44.6307 112.691 45.2739 112.762 45.913 112.056 45.732 110.775 45.452 110.148 45.938 109.637 46.347 109.578 47.6 109.667 48.184ZM119.047 64.445C119.29 64.4211 119.533 64.4144 119.777 64.425 119.745 64.518 119.73 64.6157 119.731 64.714 119.493 64.621 119.259 64.532 119.047 64.445ZM113.127 64.853C113.051 64.893 112.976 64.935 112.902 64.976 112.907 64.9244 112.907 64.8726 112.902 64.821 112.98 64.835 113.055 64.844 113.127 64.855Z" id="パス_47" transform="translate(-109.633 -33.198)"/></svg>