<svg width="24" height="25.672" viewBox="0 0 24 25.672" xmlns="http://www.w3.org/2000/svg" xmlns:xlink="http://www.w3.org/1999/xlink" id="_79" overflow="hidden"><path d="M122.88 92.5 122.88 115.555 146.88 115.555 146.88 89.88 122.88 89.88ZM145.542 101.553 140.264 101.553C140.201 101.672 140.126 101.784 140.039 101.887L145.539 101.887 145.539 102.121 139.81 102.121C139.667 102.248 139.512 102.36 139.346 102.455L145.54 102.455 145.54 102.689 138.87 102.689 138.847 102.699C138.466 102.846 138.072 102.954 137.67 103.023L145.539 103.023 145.539 111.565 124.218 111.565 124.218 103.023 132.131 103.023C131.926 102.988 131.72 102.96 131.519 102.907 131.301 102.847 131.087 102.774 130.877 102.688L124.218 102.688 124.218 102.454 130.398 102.454C130.232 102.358 130.075 102.246 129.93 102.12L124.217 102.12 124.217 101.886 129.694 101.886C129.608 101.783 129.533 101.671 129.47 101.552L124.218 101.552 124.218 93.835 145.542 93.835ZM145.542 114.218 124.218 114.218 124.218 112.9 145.542 112.9ZM145.542 91.218 145.542 92.5 124.218 92.5 124.218 91.218Z" id="パス_286" fill="#3B6DA0" transform="translate(-122.88 -89.88)"/><path d="M229.32 219.023C229.28 218.495 229.058 217.998 228.692 217.615 228.327 217.064 227.731 216.709 227.073 216.65 226.572 216.678 226.103 216.907 225.773 217.286 225.078 218.097 224.549 219.037 224.216 220.052 224.04 219.56 223.83 219.081 223.589 218.617 223.344 218.131 223.031 217.683 222.659 217.286 222.329 216.907 221.86 216.678 221.359 216.65 220.7 216.709 220.104 217.064 219.739 217.615 219.373 217.998 219.151 218.495 219.111 219.023 219.114 219.368 219.253 219.697 219.499 219.939 220.459 220.657 221.642 221.012 222.839 220.939 223.174 220.941 223.509 220.911 223.839 220.849 222.787 222.478 221.186 223.675 219.326 224.223 219.153 224.273 219.014 224.307 218.92 224.323 218.826 224.339 218.778 224.351 218.778 224.351 218.687 224.363 218.622 224.447 218.634 224.538 218.646 224.63 218.73 224.694 218.822 224.682 218.824 224.682 218.827 224.681 218.829 224.681 220.435 224.344 221.906 223.538 223.055 222.366 222.517 223.048 221.863 223.629 221.121 224.081 220.668 224.362 220.192 224.604 219.698 224.806 219.511 224.882 219.358 224.936 219.253 224.973 219.148 225.01 219.092 225.025 219.092 225.025 219.003 225.05 218.952 225.143 218.977 225.232 219.002 225.321 219.095 225.372 219.184 225.347 219.927 225.111 220.637 224.781 221.297 224.366 221.461 224.266 221.628 224.15 221.797 224.032 221.566 224.253 221.323 224.462 221.07 224.657 220.723 224.924 220.355 225.164 219.97 225.374 219.83 225.45 219.717 225.508 219.64 225.541 219.563 225.574 219.524 225.592 219.524 225.592 219.441 225.633 219.407 225.734 219.449 225.817 219.486 225.891 219.57 225.927 219.648 225.903 221.556 225.02 223.081 223.479 223.943 221.562L223.943 221.562C224.051 221.341 224.143 221.112 224.219 220.878L224.225 220.87 224.23 220.878C224.306 221.112 224.398 221.341 224.506 221.562L224.506 221.562C225.369 223.48 226.896 225.022 228.806 225.903 228.889 225.944 228.99 225.911 229.031 225.828 229.073 225.745 229.039 225.644 228.956 225.602 228.948 225.598 228.939 225.595 228.93 225.592 228.93 225.592 228.891 225.577 228.814 225.541 228.021 225.155 227.293 224.646 226.658 224.034 226.825 224.154 226.993 224.267 227.158 224.368 227.818 224.783 228.528 225.112 229.271 225.349 229.36 225.374 229.453 225.323 229.478 225.234 229.503 225.145 229.452 225.052 229.363 225.027 229.363 225.027 229.307 225.012 229.202 224.975 227.723 224.474 226.412 223.574 225.412 222.375 226.561 223.539 228.027 224.339 229.627 224.675 229.718 224.687 229.802 224.623 229.814 224.531 229.826 224.443 229.766 224.361 229.678 224.345 229.678 224.345 229.63 224.338 229.535 224.317 227.512 223.83 225.752 222.586 224.618 220.841 224.941 220.899 225.269 220.927 225.597 220.925 226.422 220.933 227.241 220.791 228.015 220.506 228.36 220.378 228.674 220.179 228.938 219.923 229.178 219.684 229.315 219.361 229.32 219.023ZM226.027 220.593C226.132 220.577 226.238 220.56 226.345 220.539 226.868 220.455 227.374 220.288 227.845 220.045 228.272 219.854 228.557 219.442 228.585 218.975 228.569 218.65 228.456 218.336 228.261 218.075 228.028 217.641 227.587 217.358 227.095 217.327 226.66 217.358 226.251 217.543 225.94 217.849 225.68 218.081 225.442 218.338 225.231 218.616 225.265 218.556 225.298 218.495 225.331 218.435 225.545 218.054 225.815 217.708 226.131 217.407 226.38 217.155 226.714 217.006 227.068 216.989 227.626 217.05 228.126 217.36 228.429 217.833 228.745 218.156 228.94 218.578 228.981 219.028 228.979 219.286 228.873 219.533 228.687 219.712 227.921 220.29 226.986 220.6 226.027 220.593ZM220.541 220.211C220.24 220.102 219.966 219.932 219.734 219.711 219.548 219.532 219.442 219.285 219.44 219.027 219.481 218.577 219.676 218.156 219.991 217.832 220.294 217.359 220.794 217.049 221.352 216.988 221.764 217.017 222.147 217.21 222.416 217.523 222.73 217.858 222.996 218.234 223.209 218.64 222.995 218.353 222.754 218.088 222.488 217.848 222.177 217.543 221.768 217.358 221.334 217.326 220.842 217.357 220.401 217.64 220.168 218.074 219.973 218.335 219.86 218.648 219.843 218.974 219.872 219.44 220.158 219.852 220.584 220.044 221.142 220.325 221.743 220.508 222.363 220.585 221.741 220.554 221.127 220.428 220.543 220.21ZM227.086 217.66C227.373 217.66 227.665 217.806 227.974 218.26 228.132 218.467 228.225 218.716 228.242 218.976 228.214 219.322 227.993 219.624 227.671 219.755 227.441 219.877 227.199 219.974 226.948 220.043 227.05 219.998 227.151 219.949 227.248 219.894 227.416 219.794 227.566 219.665 227.689 219.513 227.806 219.367 227.871 219.185 227.873 218.998 227.86 218.732 227.754 218.479 227.573 218.284 227.4 218.057 227.131 217.922 226.845 217.919 226.542 217.937 226.251 218.046 226.01 218.231 226.288 217.914 226.672 217.711 227.09 217.659ZM220.506 219.588C220.307 219.447 220.186 219.221 220.179 218.977 220.196 218.717 220.289 218.468 220.447 218.261 220.619 217.921 220.955 217.694 221.335 217.661 221.689 217.694 222.021 217.85 222.272 218.102 222.31 218.135 222.346 218.176 222.384 218.212 222.149 218.038 221.869 217.936 221.577 217.92 221.291 217.923 221.022 218.058 220.849 218.285 220.668 218.48 220.562 218.733 220.549 218.999 220.552 219.186 220.617 219.368 220.734 219.514 220.926 219.737 221.165 219.915 221.434 220.036 221.422 220.036 221.408 220.031 221.396 220.027 221.078 219.938 220.779 219.79 220.515 219.591ZM226.845 218.25C227.032 218.251 227.206 218.342 227.313 218.495 227.445 218.63 227.526 218.807 227.54 218.995 227.538 219.109 227.497 219.219 227.424 219.307 226.907 219.76 226.272 220.055 225.593 220.157 225.222 220.246 224.871 220.308 224.613 220.348L224.546 220.358 224.601 220.276C224.906 219.817 225.251 219.386 225.631 218.987 225.938 218.606 226.369 218.346 226.849 218.252ZM221.88 219.868C221.615 219.772 221.366 219.635 221.144 219.461 220.989 219.353 220.891 219.181 220.876 218.993 220.89 218.805 220.971 218.628 221.103 218.493 221.211 218.342 221.385 218.251 221.571 218.248 221.865 218.281 222.141 218.404 222.36 218.602 222.805 218.977 223.201 219.407 223.537 219.882 223.671 220.065 223.781 220.224 223.872 220.357L223.688 220.329C223.072 220.238 222.467 220.085 221.882 219.871Z" id="パス_287" fill="#3B6DA0" transform="translate(-212.227 -208.169)"/></svg>