<svg width="23.474" height="57.119" viewBox="0 0 23.474 57.119" xmlns="http://www.w3.org/2000/svg" xmlns:xlink="http://www.w3.org/1999/xlink" overflow="hidden"><g id="サラリーマンアイコン" transform="translate(-150.796 0)"><path d="M195.87 123.391 189.262 130 182.655 123.392C180.665 124.299 179.311 126.199 179.104 128.376L179.104 146.456C179.104 147.759 180.16 148.815 181.463 148.816L183.111 148.816 184.011 164.236C184.011 165.623 185.135 166.747 186.522 166.747L192.009 166.747C193.396 166.747 194.52 165.623 194.52 164.236L195.42 148.816 197.066 148.816C198.369 148.816 199.425 147.76 199.425 146.457 199.425 146.457 199.425 146.456 199.425 146.456L199.425 128.376C199.218 126.198 197.862 124.296 195.87 123.391Z" id="パス_183" fill="#3B6DA0" transform="translate(-25.15 -109.625)"/><path d="M227.819 10.758C230.79 10.7574 233.198 8.34874 233.197 5.378 233.196 2.40726 230.788-0.000551891 227.817 4.45308e-07 224.846 0.000552781 222.438 2.40926 222.439 5.38 222.439 8.35019 224.847 10.758 227.817 10.758 227.818 10.758 227.818 10.758 227.819 10.758Z" id="パス_184" fill="#3B6DA0" transform="translate(-63.65 0)"/><path d="M155.523 362.581 151.513 362.581C151.118 362.58 150.797 362.901 150.796 363.296 150.796 363.297 150.796 363.297 150.796 363.298L150.796 374.972C150.795 375.367 151.116 375.688 151.511 375.689 151.512 375.689 151.512 375.689 151.513 375.689L155.523 375.689C155.919 375.689 156.24 375.368 156.24 374.972L156.24 363.3C156.241 362.904 155.921 362.582 155.525 362.581 155.524 362.581 155.524 362.581 155.523 362.581Z" id="パス_185" fill="#3B6DA0" transform="matrix(1 0 0 1 0 -322.131)"/><path d="M257.189 116.76 257.189 120.986 258.635 122.921 260.083 120.986 260.083 116.76 257.188 116.76Z" id="パス_186" fill="#3B6DA0" transform="translate(-94.524 -103.734)"/></g></svg>