<!--?xml version="1.0" encoding="utf-8"?-->
<!-- Generator: Adobe Illustrator 22.1.0, SVG Export Plug-In . SVG Version: 6.00 Build 0)  -->
<svg version="1.1" id="_x31_1" xmlns="http://www.w3.org/2000/svg" xmlns:xlink="http://www.w3.org/1999/xlink" x="0px" y="0px" viewBox="0 0 251.419 800" style="enable-background:new 0 0 251.419 800;" xml:space="preserve">
<style type="text/css">
	.st0{fill:#040000;}
</style>
<g>
	<path class="st0" d="M95.2,72.39c1.131,3.781,3.029,7.562,4.159,9.83c1.134,2.269,2.265,1.135,2.265,1.135
		s1.894,14.004,4.544,20.052c2.651,6.05,8.325,14.004,8.325,14.004l0.28,6.186c5.04,3.841,15.437,11.448,19.006,11.448
		c3.883,0,18.62-13.566,26.533-23.759l-1.94-13.928c0,0,1.516-5.687,3.024-6.442c1.524-0.756,1.524-3.025,2.283-4.537
		c1.879-0.378,4.156-6.049,6.427-11.72c2.265-5.672,3.403-12.114,0.378-14.004c0,0,0.375-12.87,1.135-19.676
		c0.752-6.805-4.163-14.366-12.484-20.809c-3.781-8.696-12.113-14.366-21.947-17.391c-9.83-3.04-21.932,3.402-23.455,9.073
		c-10.59,2.269-11.728,12.492-11.728,12.492s-3.402-0.378-6.427,4.915c-8.329,15.501,1.131,34.042,1.131,34.042
		C94.066,62.545,94.066,68.594,95.2,72.39z M248.962,240.632c3.323-4.432,1.1-19.932,1.1-19.932s-6.643-14.398-6.643-32.122
		c0-17.739-3.195-27.115-9.973-33.239c-1.626-1.482-3.164-2.39-4.616-2.828c-1.444-1.119-3.203-1.769-5.263-1.648
		c-6.571-2.057-32.042-11.917-32.042-11.917l-1.232-2.465l-16.843-6.563l-5.853-9.377c-1.773,7.532-5.52,22.61-6.548,34.949
		c-1.365,16.363-22.499,94.76-22.499,94.76s0.681-51.811,0.681-56.59c0-4.763-3.406-33.391-3.406-38.17
		c0-4.763,6.132-8.862,6.132-8.862s-4.771-8.182-7.497-8.863c-2.73-0.68-8.862,3.419-8.862,3.419s1.365,12.264,1.365,14.306
		c0,2.042-5.452,72.257-6.137,102.261c-4.114-14.669-10.749-98.571-12.51-121.618c-0.118,0.212-0.19,0.348-0.19,0.348
		s-20.948,9.452-20.948,10.692c0,1.225,0,1.225,0,1.225s-26.704,13.565-29.172,14.791c-2.462,1.24-6.984,1.24-8.624,9.043
		c-1.645,7.803-1.232,13.974-2.056,16.016c-0.821,2.057-4.518,9.452-3.697,13.141c0.82,3.706,4.109,14.791,2.464,19.313
		c-1.645,4.522-7.387,15.606-7.387,23.833c0,8.212,3.698,16.016,1.641,21.354c-2.053,5.338-2.053,15.606-2.053,19.312
		c0,3.69-4.102,29.172-3.701,32.862c0.412,3.705-3.286,20.96,0.412,28.763c3.701,7.804,0,25.875,0,29.157
		c0,3.297,4.522,29.172,7.803,32.045c3.29,2.874,6.987,2.466,6.987,2.466s7.811,58.344,8.219,69.021
		c0.408,10.676,5.346,77.323,6.983,80.62c1.64,3.282,1.228,12.733,0.82,16.424c-0.412,3.705-3.285,46.427-4.106,50.525
		c-0.82,4.113-1.641,33.679-1.641,33.679s2.466,29.58,2.053,32.453c-0.412,2.874-4.93,9.86-3.285,12.733
		c1.636,2.874-17.667,41.906-22.601,43.13c-4.923,1.24-29.164,15.198-33.678,18.495c-4.522,3.282-0.42,10.269,5.338,12.733
		c5.75,2.466,35.739,2.056,41.905-2.056c6.159-4.114,13.966-13.566,18.48-15.199c4.522-1.648,4.11,2.466,6.16,2.874
		c2.064,0.408,15.205-1.241,17.671-5.339c2.464-4.113,2.053-21.777,2.053-21.777l2.874-4.113c0,0-0.408-27.1-1.229-29.157
		c-0.817-2.057,10.684-25.059,9.444-30.397c-1.228-5.353-0.816-13.974-1.228-15.606c-0.409-1.649,9.864-58.738,9.447-63.668
		c-0.412-4.93,3.698-42.722,3.285-43.962c-0.409-1.225,4.93-47.743,5.758-51.025c0.817-3.296,9.445-48.076,11.089-52.596
		c1.645-4.507,17.251,69.126,17.251,76.506c0,7.411,7.803,62.443,10.273,69.021c2.464,6.578,5.338,14.382,5.338,17.255
		c0,2.874-3.285,11.101-2.874,13.566c0.412,2.449,4.11,34.904,6.568,36.944c2.476,2.057,3.705,8.212,5.345,12.325
		c1.641,4.114,5.342,20.537,5.342,20.537s-3.701,18.903-4.522,21.777c-0.82,2.873-2.461,21.368,0.82,23.002
		c3.285,1.648,2.057,16.438,3.701,20.536c1.641,4.114,7.8,9.452,7.8,11.101c0,1.648-0.409,9.86,5.342,16.03
		c5.758,6.156,21.361,14.791,31.225,9.437c9.857-5.339,2.056-26.692-3.29-34.51c-5.338-7.804-4.93-24.228-6.162-25.467
		c-1.233-1.225,3.697-23.41,2.053-26.692c-1.641-3.297-2.465-11.1-3.693-12.34c-1.229-1.225-0.408-22.17-0.408-25.044
		c0-2.873-6.575-89.951-6.987-93.248c-0.412-3.282,0.412-48.877,1.233-53.822c0.824-4.915,2.053-34.586,2.053-35.826
		c0-0.438,0.734-9.149,1.664-20.355c0.412-0.167,0.786-0.408,1.074-0.726c0,0,3.49,2.375,5.353,3.614
		c1.868,1.256,6.851,0.877,8.224,0.499c1.368-0.378,2.495-2.117,2.495-2.117s3.857-1.24,4.484-2.117
		c0.62-0.878,2.737-3.236,3.104-3.479c0.386-0.257,5.365-2.994,5.739-5.61c0.375-2.617-0.499-22.307-0.499-22.307
		s3.358,0.257,3.611-0.983c0.133-0.666,0.159-2.54,0.159-4.189c0.794-0.47,1.494-1.15,1.838-2.163
		c1.1-3.327,2.805-123.448,2.805-127.88v-32.121C250.063,266.114,245.639,245.063,248.962,240.632z M76.512,274.114
		c0,2.722,0,2.722,0,2.722l-2.049,5.46c0,0,0-20.461,2.049-18.419C78.925,266.296,76.512,271.392,76.512,274.114z M214.902,370.205
		c-1.834-9.845-3.558-18.556-4.072-20.099c-1.225-3.69-5.335-32.863-6.158-35.327c-0.821-2.465-2.466-36.159-1.645-40.68
		c0.824-4.507,2.877-11.086,2.877-11.086s0.665-2.374,1.777-6.352l1.395,22.745v19.947l-1.108,17.724l7.758,46.518L214.902,370.205z
		"></path>
</g>
</svg>
