<?xml version="1.0" encoding="utf-8"?>
<!-- Generator: Adobe Illustrator 18.0.0, SVG Export Plug-In . SVG Version: 6.00 Build 0)  -->
<!DOCTYPE svg PUBLIC "-//W3C//DTD SVG 1.1//EN" "http://www.w3.org/Graphics/SVG/1.1/DTD/svg11.dtd">
<svg version="1.1" id="レイヤー_1" xmlns="http://www.w3.org/2000/svg" xmlns:xlink="http://www.w3.org/1999/xlink" x="0px"
	 y="0px" viewBox="0 0 62.4 24.4" enable-background="new 0 0 62.4 24.4" xml:space="preserve">
<g>
	<path fill="#004097" d="M11.4,7.5v16.5c0,0.6,0.5,0.7,0.9,0.2l5.5-5.4V0.6c0-0.5-0.4-0.6-0.9-0.2L3.2,13.8c-3.9,3.9-4,8.1-1.7,10.2
		c0.7,0.5,1.2,0.5,1.7,0l7.5-7.3c0.6-0.6-0.2-0.6-0.2-0.6h-4c-1.4,0-1.7-1.8,0.1-3.9L11.4,7.5z"/>
	<path fill="#004097" d="M26.5,12.2l2.8-2.8c0.4-0.4,0.4-0.7-0.1-1.2c-2-1.7-4.8-1.7-6.6,0l-2.8,2.7c-1.6,1.8-0.9,2.9,0,3.8l5.9,5.9
		c0.7,0.6,0.3,1.6-1,2.3c-1.7,0.8-2.4,0.4-2.4-1.2v-3.4c0-0.5-0.3-0.5-0.6-0.2l-3.4,3.4c-0.7,0.8,0,1.8,1.1,2.2
		c3.4,1.1,5.3,0.3,7-1.2l2.2-2.2c1.8-2.1,0.1-3.5,0.1-3.5C27.9,16,23,11.2,23,11.2c-1.2-1-0.9-2,0.9-3c0.7-0.4,1.3-0.1,1.3,0.5v3.6
		C25.2,13.1,25.6,13,26.5,12.2z"/>
	<path fill="#004097" d="M43.7,4.3v19.2c0,1,0.5,1,1.1,0.5l3.9-3.9l0-6.2l1.7-1.7v11.4c0,0.9,0.5,0.9,1.1,0.3l3.7-3.7V7.5
		c0-0.7-0.5-0.9-1-0.2l-5.5,5.4V0.9c0-1-0.6-0.9-1-0.4L43.7,4.3z"/>
	<path fill="#004097" d="M61.5,0.2l-4,3.8v4.2c0,0.7,0.4,0.7,1,0.2l3.8-3.8V0.4C62.3-0.1,61.9-0.1,61.5,0.2z"/>
	<path fill="#004097" d="M61.5,7.2L57.6,11v12.7c0,0.6,0.4,0.7,0.9,0.2l3.8-3.8V7.5C62.4,6.9,61.9,6.7,61.5,7.2z"/>
	<path fill="#004097" d="M40.5,7.3L32.7,15c-2,2-4.1,6.4-1.2,8.9c0.7,0.6,1,0.5,1.6,0l3.6-3.5v3.4c0,0.6,0.5,0.7,1,0.2
		c0.7-0.7,3.8-3.7,3.8-3.7V7.6C41.5,6.8,41.1,6.7,40.5,7.3z M33.5,17.5c0-1.6,0.7-3,1.8-4.1l1.4-1.3l0,0v7.2l-1.3,1.1
		C34.7,20.9,33.5,19.8,33.5,17.5"/>
</g>
</svg>
